<svg xmlns="http://www.w3.org/2000/svg" width="1920" height="1080"><path d="M-33,-235L145,-229L567,-256Z" fill="#646464" stroke="#646464" stroke-width="1.51"/><path d="M567,-256L865,-229L1194,-225Z" fill="#989696" stroke="#989696" stroke-width="1.51"/><path d="M1054,1321L909,1329L1600,1337Z" fill="#ba6f7c" stroke="#ba6f7c" stroke-width="1.51"/><path d="M1194,-225L1499,-216L1915,-218Z" fill="#806169" stroke="#806169" stroke-width="1.51"/><path d="M567,-256L1194,-225L1915,-218Z" fill="#8a797e" stroke="#8a797e" stroke-width="1.51"/><path d="M1499,-216L1618,-200L1915,-218Z" fill="#7d5760" stroke="#7d5760" stroke-width="1.51"/><path d="M1740,1285L1600,1337L1973,1333Z" fill="#9d3a52" stroke="#9d3a52" stroke-width="1.51"/><path d="M1910,1108L1973,1333L2062,1331Z" fill="#972e49" stroke="#972e49" stroke-width="1.51"/><path d="M1976,-31L2034,81L2102,-64Z" fill="#8f5960" stroke="#8f5960" stroke-width="1.51"/><path d="M1915,-218L1976,-31L2102,-64Z" fill="#824e56" stroke="#824e56" stroke-width="1.51"/><path d="M1920,279L1973,403L2103,222Z" fill="#bc838b" stroke="#bc838b" stroke-width="1.51"/><path d="M2102,-64L2034,81L2103,222Z" fill="#9a6168" stroke="#9a6168" stroke-width="1.51"/><path d="M1895,887L1972,1017L2110,827Z" fill="#ae5b6e" stroke="#ae5b6e" stroke-width="1.51"/><path d="M2103,222L1973,403L2120,414Z" fill="#c0848b" stroke="#c0848b" stroke-width="1.51"/><path d="M1975,521L2110,556L2120,414Z" fill="#cb8b93" stroke="#cb8b93" stroke-width="1.51"/><path d="M1973,403L1975,521L2120,414Z" fill="#cf949c" stroke="#cf949c" stroke-width="1.51"/><path d="M1916,642L2110,827L2124,643Z" fill="#bb727f" stroke="#bb727f" stroke-width="1.51"/><path d="M2120,414L2110,556L2124,643Z" fill="#c5838b" stroke="#c5838b" stroke-width="1.51"/><path d="M2110,827L1972,1017L2129,951Z" fill="#aa5366" stroke="#aa5366" stroke-width="1.51"/><path d="M2124,643L2110,827L2129,951Z" fill="#b1606f" stroke="#b1606f" stroke-width="1.51"/><path d="M1915,-218L2102,-64L2130,-197Z" fill="#77434b" stroke="#77434b" stroke-width="1.51"/><path d="M2103,222L2120,414L2130,-197Z" fill="#a2686d" stroke="#a2686d" stroke-width="1.51"/><path d="M2102,-64L2103,222L2130,-197Z" fill="#8b5359" stroke="#8b5359" stroke-width="1.51"/><path d="M2120,414L2124,643L2130,-197Z" fill="#b6797f" stroke="#b6797f" stroke-width="1.51"/><path d="M1910,1108L2062,1331L2133,1092Z" fill="#9b334e" stroke="#9b334e" stroke-width="1.51"/><path d="M1972,1017L1910,1108L2133,1092Z" fill="#a3445c" stroke="#a3445c" stroke-width="1.51"/><path d="M2129,951L1972,1017L2133,1092Z" fill="#a4465c" stroke="#a4465c" stroke-width="1.51"/><path d="M2124,643L2129,951L2133,1092Z" fill="#aa5465" stroke="#aa5465" stroke-width="1.51"/><path d="M2110,556L1975,521L2124,643Z" fill="#c4818b" stroke="#c4818b" stroke-width="1.51"/><path d="M1975,521L1916,642L2124,643Z" fill="#c5828e" stroke="#c5828e" stroke-width="1.51"/><path d="M1916,642L1895,887L2110,827Z" fill="#b86d7d" stroke="#b86d7d" stroke-width="1.51"/><path d="M2034,81L1920,279L2103,222Z" fill="#ac747c" stroke="#ac747c" stroke-width="1.51"/><path d="M1618,-200L1815,-178L1915,-218Z" fill="#7a505a" stroke="#7a505a" stroke-width="1.51"/><path d="M1931,81L1920,279L2034,81Z" fill="#a8727b" stroke="#a8727b" stroke-width="1.51"/><path d="M1976,-31L1931,81L2034,81Z" fill="#98636b" stroke="#98636b" stroke-width="1.51"/><path d="M1483,1294L1054,1321L1600,1337Z" fill="#b1606f" stroke="#b1606f" stroke-width="1.51"/><path d="M1738,1162L1740,1285L1910,1108Z" fill="#a54660" stroke="#a54660" stroke-width="1.51"/><path d="M1828,857L1895,887L1916,642Z" fill="#bb7284" stroke="#bb7284" stroke-width="1.51"/><path d="M1796,662L1828,857L1916,642Z" fill="#c27f8f" stroke="#c27f8f" stroke-width="1.51"/><path d="M1817,107L1920,279L1931,81Z" fill="#ab7882" stroke="#ab7882" stroke-width="1.51"/><path d="M1910,1108L1740,1285L1973,1333Z" fill="#9d3953" stroke="#9d3953" stroke-width="1.51"/><path d="M1920,279L1835,341L1973,403Z" fill="#c58f98" stroke="#c58f98" stroke-width="1.51"/><path d="M1748,569L1916,642L1975,521Z" fill="#cb8e9c" stroke="#cb8e9c" stroke-width="1.51"/><path d="M1973,403L1835,341L1975,521Z" fill="#cf97a1" stroke="#cf97a1" stroke-width="1.51"/><path d="M1835,341L1748,569L1975,521Z" fill="#d39da9" stroke="#d39da9" stroke-width="1.51"/><path d="M1915,-218L1815,-178L1976,-31Z" fill="#7f4f59" stroke="#7f4f59" stroke-width="1.51"/><path d="M1749,-49L1931,81L1976,-31Z" fill="#95646e" stroke="#95646e" stroke-width="1.51"/><path d="M1815,-178L1749,-49L1976,-31Z" fill="#8a5b65" stroke="#8a5b65" stroke-width="1.51"/><path d="M1895,887L1758,979L1972,1017Z" fill="#b05d73" stroke="#b05d73" stroke-width="1.51"/><path d="M1758,979L1910,1108L1972,1017Z" fill="#ab526a" stroke="#ab526a" stroke-width="1.51"/><path d="M1204,1277L1054,1321L1483,1294Z" fill="#b86d7b" stroke="#b86d7b" stroke-width="1.51"/><path d="M1748,569L1796,662L1916,642Z" fill="#ca8d9c" stroke="#ca8d9c" stroke-width="1.51"/><path d="M1817,107L1834,289L1920,279Z" fill="#b6848e" stroke="#b6848e" stroke-width="1.51"/><path d="M1834,289L1835,341L1920,279Z" fill="#c18d98" stroke="#c18d98" stroke-width="1.51"/><path d="M1749,-49L1817,107L1931,81Z" fill="#9e6e78" stroke="#9e6e78" stroke-width="1.51"/><path d="M1828,857L1758,979L1895,887Z" fill="#b6677c" stroke="#b6677c" stroke-width="1.51"/><path d="M1758,979L1738,1162L1910,1108Z" fill="#ab536b" stroke="#ab536b" stroke-width="1.51"/><path d="M1749,-49L1642,71L1817,107Z" fill="#a1767f" stroke="#a1767f" stroke-width="1.51"/><path d="M1642,71L1605,283L1817,107Z" fill="#b38893" stroke="#b38893" stroke-width="1.51"/><path d="M1796,662L1660,708L1828,857Z" fill="#c48393" stroke="#c48393" stroke-width="1.51"/><path d="M1660,708L1637,819L1828,857Z" fill="#c28193" stroke="#c28193" stroke-width="1.51"/><path d="M1817,107L1605,283L1834,289Z" fill="#ba8d97" stroke="#ba8d97" stroke-width="1.51"/><path d="M1630,416L1748,569L1835,341Z" fill="#d8aab4" stroke="#d8aab4" stroke-width="1.51"/><path d="M1834,289L1605,283L1835,341Z" fill="#c597a1" stroke="#c597a1" stroke-width="1.51"/><path d="M1605,283L1630,416L1835,341Z" fill="#cda2ac" stroke="#cda2ac" stroke-width="1.51"/><path d="M1665,1120L1738,1162L1758,979Z" fill="#af5a71" stroke="#af5a71" stroke-width="1.51"/><path d="M1637,819L1758,979L1828,857Z" fill="#bb7286" stroke="#bb7286" stroke-width="1.51"/><path d="M1674,-33L1642,71L1749,-49Z" fill="#9c737d" stroke="#9c737d" stroke-width="1.51"/><path d="M1618,-200L1749,-49L1815,-178Z" fill="#855c66" stroke="#855c66" stroke-width="1.51"/><path d="M1748,569L1660,708L1796,662Z" fill="#cc92a1" stroke="#cc92a1" stroke-width="1.51"/><path d="M1738,1162L1665,1120L1740,1285Z" fill="#a84d66" stroke="#a84d66" stroke-width="1.51"/><path d="M1619,562L1660,708L1748,569Z" fill="#d09ba9" stroke="#d09ba9" stroke-width="1.51"/><path d="M1630,416L1619,562L1748,569Z" fill="#d8a9b5" stroke="#d8a9b5" stroke-width="1.51"/><path d="M1618,-200L1674,-33L1749,-49Z" fill="#8f6771" stroke="#8f6771" stroke-width="1.51"/><path d="M1611,1025L1665,1120L1758,979Z" fill="#b4637a" stroke="#b4637a" stroke-width="1.51"/><path d="M1637,819L1611,1025L1758,979Z" fill="#ba7186" stroke="#ba7186" stroke-width="1.51"/><path d="M1665,1120L1600,1337L1740,1285Z" fill="#a74b62" stroke="#a74b62" stroke-width="1.51"/><path d="M1532,524L1619,562L1630,416Z" fill="#dbb1bc" stroke="#dbb1bc" stroke-width="1.51"/><path d="M1495,1021L1611,1025L1637,819Z" fill="#bd778b" stroke="#bd778b" stroke-width="1.51"/><path d="M1496,74L1605,283L1642,71Z" fill="#b5909a" stroke="#b5909a" stroke-width="1.51"/><path d="M1483,1294L1600,1337L1665,1120Z" fill="#aa5369" stroke="#aa5369" stroke-width="1.51"/><path d="M1483,1123L1483,1294L1665,1120Z" fill="#b05e74" stroke="#b05e74" stroke-width="1.51"/><path d="M1618,-200L1442,-70L1674,-33Z" fill="#916f78" stroke="#916f78" stroke-width="1.51"/><path d="M1496,74L1642,71L1674,-33Z" fill="#a58089" stroke="#a58089" stroke-width="1.51"/><path d="M1442,-70L1496,74L1674,-33Z" fill="#a07f87" stroke="#a07f87" stroke-width="1.51"/><path d="M145,-229L236,-224L567,-256Z" fill="#6d6d6d" stroke="#6d6d6d" stroke-width="1.51"/><path d="M1496,74L1474,271L1605,283Z" fill="#c09ea7" stroke="#c09ea7" stroke-width="1.51"/><path d="M1467,801L1495,1021L1637,819Z" fill="#c48697" stroke="#c48697" stroke-width="1.51"/><path d="M1619,562L1454,640L1660,708Z" fill="#d2a1af" stroke="#d2a1af" stroke-width="1.51"/><path d="M1467,801L1637,819L1660,708Z" fill="#c88e9f" stroke="#c88e9f" stroke-width="1.51"/><path d="M1611,1025L1483,1123L1665,1120Z" fill="#b4657b" stroke="#b4657b" stroke-width="1.51"/><path d="M1454,640L1467,801L1660,708Z" fill="#cf9baa" stroke="#cf9baa" stroke-width="1.51"/><path d="M1499,-216L1442,-70L1618,-200Z" fill="#8b6b73" stroke="#8b6b73" stroke-width="1.51"/><path d="M1605,283L1449,369L1630,416Z" fill="#d3afb8" stroke="#d3afb8" stroke-width="1.51"/><path d="M1194,-225L1376,-176L1499,-216Z" fill="#897279" stroke="#897279" stroke-width="1.51"/><path d="M1495,1021L1483,1123L1611,1025Z" fill="#b96f83" stroke="#b96f83" stroke-width="1.51"/><path d="M1532,524L1454,640L1619,562Z" fill="#d8adb9" stroke="#d8adb9" stroke-width="1.51"/><path d="M1449,369L1532,524L1630,416Z" fill="#e0bcc5" stroke="#e0bcc5" stroke-width="1.51"/><path d="M1378,1255L1204,1277L1483,1294Z" fill="#b46676" stroke="#b46676" stroke-width="1.51"/><path d="M1474,271L1449,369L1605,283Z" fill="#cfadb6" stroke="#cfadb6" stroke-width="1.51"/><path d="M440,1305L329,1334L909,1329Z" fill="#b4787e" stroke="#b4787e" stroke-width="1.51"/><path d="M1483,1123L1378,1255L1483,1294Z" fill="#b36275" stroke="#b36275" stroke-width="1.51"/><path d="M1467,801L1359,850L1495,1021Z" fill="#c78d9d" stroke="#c78d9d" stroke-width="1.51"/><path d="M1361,205L1474,271L1496,74Z" fill="#c0a2aa" stroke="#c0a2aa" stroke-width="1.51"/><path d="M1376,-176L1442,-70L1499,-216Z" fill="#8e737b" stroke="#8e737b" stroke-width="1.51"/><path d="M1310,564L1454,640L1532,524Z" fill="#dcb7c1" stroke="#dcb7c1" stroke-width="1.51"/><path d="M1449,369L1310,564L1532,524Z" fill="#e2c2cb" stroke="#e2c2cb" stroke-width="1.51"/><path d="M1356,371L1310,564L1449,369Z" fill="#e5cbd2" stroke="#e5cbd2" stroke-width="1.51"/><path d="M1454,640L1312,704L1467,801Z" fill="#d4a6b3" stroke="#d4a6b3" stroke-width="1.51"/><path d="M1347,1125L1378,1255L1483,1123Z" fill="#b86c80" stroke="#b86c80" stroke-width="1.51"/><path d="M1359,850L1303,991L1495,1021Z" fill="#c6899a" stroke="#c6899a" stroke-width="1.51"/><path d="M1347,1125L1483,1123L1495,1021Z" fill="#bb7386" stroke="#bb7386" stroke-width="1.51"/><path d="M1442,-70L1327,127L1496,74Z" fill="#ac9198" stroke="#ac9198" stroke-width="1.51"/><path d="M1327,127L1361,205L1496,74Z" fill="#bba0a7" stroke="#bba0a7" stroke-width="1.51"/><path d="M1303,991L1347,1125L1495,1021Z" fill="#c07e90" stroke="#c07e90" stroke-width="1.51"/><path d="M865,-229L1074,-198L1194,-225Z" fill="#948a8d" stroke="#948a8d" stroke-width="1.51"/><path d="M1312,704L1359,850L1467,801Z" fill="#d0a0ae" stroke="#d0a0ae" stroke-width="1.51"/><path d="M1356,371L1449,369L1474,271Z" fill="#d6b9c1" stroke="#d6b9c1" stroke-width="1.51"/><path d="M1361,205L1356,371L1474,271Z" fill="#d0b4bb" stroke="#d0b4bb" stroke-width="1.51"/><path d="M1286,-103L1327,127L1442,-70Z" fill="#a78f95" stroke="#a78f95" stroke-width="1.51"/><path d="M1310,564L1312,704L1454,640Z" fill="#dbb5c0" stroke="#dbb5c0" stroke-width="1.51"/><path d="M1376,-176L1286,-103L1442,-70Z" fill="#977f86" stroke="#977f86" stroke-width="1.51"/><path d="M567,-256L699,-226L865,-229Z" fill="#8f8f8f" stroke="#8f8f8f" stroke-width="1.51"/><path d="M626,1280L440,1305L909,1329Z" fill="#be8389" stroke="#be8389" stroke-width="1.51"/><path d="M1286,-103L1204,-70L1327,127Z" fill="#aa969b" stroke="#aa969b" stroke-width="1.51"/><path d="M1190,1141L1204,1277L1347,1125Z" fill="#bf788a" stroke="#bf788a" stroke-width="1.51"/><path d="M1180,376L1310,564L1356,371Z" fill="#ead4d9" stroke="#ead4d9" stroke-width="1.51"/><path d="M1170,253L1356,371L1361,205Z" fill="#d3bcc2" stroke="#d3bcc2" stroke-width="1.51"/><path d="M1194,-225L1286,-103L1376,-176Z" fill="#927e84" stroke="#927e84" stroke-width="1.51"/><path d="M1347,1125L1204,1277L1378,1255Z" fill="#ba6f80" stroke="#ba6f80" stroke-width="1.51"/><path d="M1170,253L1180,376L1356,371Z" fill="#ddc9cf" stroke="#ddc9cf" stroke-width="1.51"/><path d="M1310,564L1226,649L1312,704Z" fill="#debcc6" stroke="#debcc6" stroke-width="1.51"/><path d="M1204,-70L1134,81L1327,127Z" fill="#b5a3a8" stroke="#b5a3a8" stroke-width="1.51"/><path d="M1184,968L1303,991L1359,850Z" fill="#cb95a4" stroke="#cb95a4" stroke-width="1.51"/><path d="M1152,831L1184,968L1359,850Z" fill="#d1a0ae" stroke="#d1a0ae" stroke-width="1.51"/><path d="M1312,704L1152,831L1359,850Z" fill="#d5a8b4" stroke="#d5a8b4" stroke-width="1.51"/><path d="M1327,127L1170,253L1361,205Z" fill="#c8b2b7" stroke="#c8b2b7" stroke-width="1.51"/><path d="M1303,991L1190,1141L1347,1125Z" fill="#c38293" stroke="#c38293" stroke-width="1.51"/><path d="M1180,376L1136,583L1310,564Z" fill="#ead4db" stroke="#ead4db" stroke-width="1.51"/><path d="M1134,81L1170,253L1327,127Z" fill="#c5b3b8" stroke="#c5b3b8" stroke-width="1.51"/><path d="M1184,968L1190,1141L1303,991Z" fill="#c88d9d" stroke="#c88d9d" stroke-width="1.51"/><path d="M1226,649L1152,831L1312,704Z" fill="#dbb5c0" stroke="#dbb5c0" stroke-width="1.51"/><path d="M1136,583L1226,649L1310,564Z" fill="#e3c6cf" stroke="#e3c6cf" stroke-width="1.51"/><path d="M1194,-225L1204,-70L1286,-103Z" fill="#9a888d" stroke="#9a888d" stroke-width="1.51"/><path d="M1134,81L1085,200L1170,253Z" fill="#cbbdc1" stroke="#cbbdc1" stroke-width="1.51"/><path d="M1184,968L1028,1024L1190,1141Z" fill="#cc94a2" stroke="#cc94a2" stroke-width="1.51"/><path d="M1071,48L1134,81L1204,-70Z" fill="#b4a6aa" stroke="#b4a6aa" stroke-width="1.51"/><path d="M1194,-225L1074,-198L1204,-70Z" fill="#98898e" stroke="#98898e" stroke-width="1.51"/><path d="M1022,685L1152,831L1226,649Z" fill="#e0bec8" stroke="#e0bec8" stroke-width="1.51"/><path d="M1136,583L1022,685L1226,649Z" fill="#e5cad2" stroke="#e5cad2" stroke-width="1.51"/><path d="M1018,551L1136,583L1180,376Z" fill="#efdde3" stroke="#efdde3" stroke-width="1.51"/><path d="M998,380L1018,551L1180,376Z" fill="#f3e7ea" stroke="#f3e7ea" stroke-width="1.51"/><path d="M1190,1141L1029,1176L1204,1277Z" fill="#c3808f" stroke="#c3808f" stroke-width="1.51"/><path d="M1029,1176L1054,1321L1204,1277Z" fill="#c27e8b" stroke="#c27e8b" stroke-width="1.51"/><path d="M1074,-198L1003,-111L1204,-70Z" fill="#a09598" stroke="#a09598" stroke-width="1.51"/><path d="M1003,-111L1071,48L1204,-70Z" fill="#ada1a5" stroke="#ada1a5" stroke-width="1.51"/><path d="M1170,253L998,380L1180,376Z" fill="#e3d5d9" stroke="#e3d5d9" stroke-width="1.51"/><path d="M1152,831L986,860L1184,968Z" fill="#d6abb8" stroke="#d6abb8" stroke-width="1.51"/><path d="M1028,1024L1029,1176L1190,1141Z" fill="#cb8f9e" stroke="#cb8f9e" stroke-width="1.51"/><path d="M986,860L1028,1024L1184,968Z" fill="#d5a6b3" stroke="#d5a6b3" stroke-width="1.51"/><path d="M1085,200L998,380L1170,253Z" fill="#dcd0d3" stroke="#dcd0d3" stroke-width="1.51"/><path d="M1022,685L986,860L1152,831Z" fill="#dfbcc6" stroke="#dfbcc6" stroke-width="1.51"/><path d="M1071,48L1085,200L1134,81Z" fill="#c4b7bb" stroke="#c4b7bb" stroke-width="1.51"/><path d="M1018,551L1022,685L1136,583Z" fill="#ead5db" stroke="#ead5db" stroke-width="1.51"/><path d="M910,251L998,380L1085,200Z" fill="#dfd7da" stroke="#dfd7da" stroke-width="1.51"/><path d="M1071,48L902,107L1085,200Z" fill="#c8bfc2" stroke="#c8bfc2" stroke-width="1.51"/><path d="M902,107L910,251L1085,200Z" fill="#d4cdcf" stroke="#d4cdcf" stroke-width="1.51"/><path d="M1029,1176L909,1329L1054,1321Z" fill="#c78590" stroke="#c78590" stroke-width="1.51"/><path d="M1003,-111L875,-54L1071,48Z" fill="#b2abad" stroke="#b2abad" stroke-width="1.51"/><path d="M875,-54L902,107L1071,48Z" fill="#beb8ba" stroke="#beb8ba" stroke-width="1.51"/><path d="M865,-229L1003,-111L1074,-198Z" fill="#9d9698" stroke="#9d9698" stroke-width="1.51"/><path d="M998,380L880,540L1018,551Z" fill="#f7ecef" stroke="#f7ecef" stroke-width="1.51"/><path d="M880,734L986,860L1022,685Z" fill="#e5c9d1" stroke="#e5c9d1" stroke-width="1.51"/><path d="M986,860L892,1002L1028,1024Z" fill="#d9adb9" stroke="#d9adb9" stroke-width="1.51"/><path d="M1028,1024L892,1002L1029,1176Z" fill="#d29eab" stroke="#d29eab" stroke-width="1.51"/><path d="M912,365L880,540L998,380Z" fill="#f8f2f4" stroke="#f8f2f4" stroke-width="1.51"/><path d="M910,251L912,365L998,380Z" fill="#e9e4e5" stroke="#e9e4e5" stroke-width="1.51"/><path d="M1018,551L880,540L1022,685Z" fill="#efdee3" stroke="#efdee3" stroke-width="1.51"/><path d="M880,540L880,734L1022,685Z" fill="#eddae0" stroke="#eddae0" stroke-width="1.51"/><path d="M837,1187L909,1329L1029,1176Z" fill="#cd909b" stroke="#cd909b" stroke-width="1.51"/><path d="M892,1002L837,1187L1029,1176Z" fill="#d39da9" stroke="#d39da9" stroke-width="1.51"/><path d="M887,870L892,1002L986,860Z" fill="#deb8c2" stroke="#deb8c2" stroke-width="1.51"/><path d="M880,734L887,870L986,860Z" fill="#e3c5cd" stroke="#e3c5cd" stroke-width="1.51"/><path d="M865,-229L875,-54L1003,-111Z" fill="#a7a3a4" stroke="#a7a3a4" stroke-width="1.51"/><path d="M865,-229L766,-43L875,-54Z" fill="#aeadae" stroke="#aeadae" stroke-width="1.51"/><path d="M734,556L739,739L880,734Z" fill="#ecdce1" stroke="#ecdce1" stroke-width="1.51"/><path d="M734,556L880,734L880,540Z" fill="#f5e9ec" stroke="#f5e9ec" stroke-width="1.51"/><path d="M773,344L734,556L880,540Z" fill="#faf8f8" stroke="#faf8f8" stroke-width="1.51"/><path d="M880,734L779,836L887,870Z" fill="#e7ccd3" stroke="#e7ccd3" stroke-width="1.51"/><path d="M727,1162L837,1187L892,1002Z" fill="#d7a5af" stroke="#d7a5af" stroke-width="1.51"/><path d="M887,870L783,948L892,1002Z" fill="#e0bbc4" stroke="#e0bbc4" stroke-width="1.51"/><path d="M753,104L740,239L902,107Z" fill="#d2d2d2" stroke="#d2d2d2" stroke-width="1.51"/><path d="M875,-54L766,-43L902,107Z" fill="#bebdbe" stroke="#bebdbe" stroke-width="1.51"/><path d="M766,-43L753,104L902,107Z" fill="#c5c5c5" stroke="#c5c5c5" stroke-width="1.51"/><path d="M717,1255L626,1280L909,1329Z" fill="#c78c93" stroke="#c78c93" stroke-width="1.51"/><path d="M837,1187L717,1255L909,1329Z" fill="#d0959e" stroke="#d0959e" stroke-width="1.51"/><path d="M902,107L740,239L910,251Z" fill="#dbdada" stroke="#dbdada" stroke-width="1.51"/><path d="M740,239L773,344L910,251Z" fill="#e5e5e5" stroke="#e5e5e5" stroke-width="1.51"/><path d="M910,251L773,344L912,365Z" fill="#ebe9ea" stroke="#ebe9ea" stroke-width="1.51"/><path d="M773,344L880,540L912,365Z" fill="#f9f8f8" stroke="#f9f8f8" stroke-width="1.51"/><path d="M783,948L727,1162L892,1002Z" fill="#d9adb8" stroke="#d9adb8" stroke-width="1.51"/><path d="M699,-226L766,-43L865,-229Z" fill="#a0a0a0" stroke="#a0a0a0" stroke-width="1.51"/><path d="M739,739L779,836L880,734Z" fill="#e8d2d7" stroke="#e8d2d7" stroke-width="1.51"/><path d="M779,836L783,948L887,870Z" fill="#e3c3cb" stroke="#e3c3cb" stroke-width="1.51"/><path d="M617,1032L727,1162L783,948Z" fill="#d0a4ae" stroke="#d0a4ae" stroke-width="1.51"/><path d="M727,1162L717,1255L837,1187Z" fill="#cd969f" stroke="#cd969f" stroke-width="1.51"/><path d="M734,556L585,672L739,739Z" fill="#e4d6da" stroke="#e4d6da" stroke-width="1.51"/><path d="M699,-226L548,-109L766,-43Z" fill="#9d9d9d" stroke="#9d9d9d" stroke-width="1.51"/><path d="M593,54L753,104L766,-43Z" fill="#b9b9b9" stroke="#b9b9b9" stroke-width="1.51"/><path d="M565,398L734,556L773,344Z" fill="#f0f0f0" stroke="#f0f0f0" stroke-width="1.51"/><path d="M779,836L625,879L783,948Z" fill="#dabbc3" stroke="#dabbc3" stroke-width="1.51"/><path d="M625,879L617,1032L783,948Z" fill="#d2adb7" stroke="#d2adb7" stroke-width="1.51"/><path d="M739,739L625,879L779,836Z" fill="#ddc3ca" stroke="#ddc3ca" stroke-width="1.51"/><path d="M740,239L570,289L773,344Z" fill="#dcdcdc" stroke="#dcdcdc" stroke-width="1.51"/><path d="M570,289L565,398L773,344Z" fill="#dedede" stroke="#dedede" stroke-width="1.51"/><path d="M593,54L740,239L753,104Z" fill="#c6c6c6" stroke="#c6c6c6" stroke-width="1.51"/><path d="M548,-109L593,54L766,-43Z" fill="#a8a8a8" stroke="#a8a8a8" stroke-width="1.51"/><path d="M593,54L570,289L740,239Z" fill="#c9c9c9" stroke="#c9c9c9" stroke-width="1.51"/><path d="M617,1032L565,1110L727,1162Z" fill="#c697a1" stroke="#c697a1" stroke-width="1.51"/><path d="M551,577L585,672L734,556Z" fill="#e2d7da" stroke="#e2d7da" stroke-width="1.51"/><path d="M565,398L551,577L734,556Z" fill="#e7e2e4" stroke="#e7e2e4" stroke-width="1.51"/><path d="M585,672L625,879L739,739Z" fill="#dac4ca" stroke="#dac4ca" stroke-width="1.51"/><path d="M626,1280L717,1255L727,1162Z" fill="#c58d95" stroke="#c58d95" stroke-width="1.51"/><path d="M565,1110L626,1280L727,1162Z" fill="#c28d97" stroke="#c28d97" stroke-width="1.51"/><path d="M567,-256L548,-109L699,-226Z" fill="#8c8c8c" stroke="#8c8c8c" stroke-width="1.51"/><path d="M236,-224L471,-205L567,-256Z" fill="#787878" stroke="#787878" stroke-width="1.51"/><path d="M414,110L473,229L593,54Z" fill="#b2b2b2" stroke="#b2b2b2" stroke-width="1.51"/><path d="M548,-109L459,-29L593,54Z" fill="#a0a0a0" stroke="#a0a0a0" stroke-width="1.51"/><path d="M473,229L570,289L593,54Z" fill="#c0c0c0" stroke="#c0c0c0" stroke-width="1.51"/><path d="M407,818L485,974L625,879Z" fill="#c5a6ae" stroke="#c5a6ae" stroke-width="1.51"/><path d="M585,672L476,682L625,879Z" fill="#d3bec4" stroke="#d3bec4" stroke-width="1.51"/><path d="M476,682L407,818L625,879Z" fill="#cab3b9" stroke="#cab3b9" stroke-width="1.51"/><path d="M485,974L617,1032L625,879Z" fill="#c8a3ac" stroke="#c8a3ac" stroke-width="1.51"/><path d="M565,1110L440,1305L626,1280Z" fill="#b78088" stroke="#b78088" stroke-width="1.51"/><path d="M443,1108L440,1305L565,1110Z" fill="#b3808a" stroke="#b3808a" stroke-width="1.51"/><path d="M471,-205L548,-109L567,-256Z" fill="#878787" stroke="#878787" stroke-width="1.51"/><path d="M485,974L565,1110L617,1032Z" fill="#c297a2" stroke="#c297a2" stroke-width="1.51"/><path d="M399,418L551,577L565,398Z" fill="#dfdede" stroke="#dfdede" stroke-width="1.51"/><path d="M551,577L476,682L585,672Z" fill="#d7cacd" stroke="#d7cacd" stroke-width="1.51"/><path d="M459,-29L414,110L593,54Z" fill="#a6a6a6" stroke="#a6a6a6" stroke-width="1.51"/><path d="M399,418L398,565L551,577Z" fill="#d6d1d3" stroke="#d6d1d3" stroke-width="1.51"/><path d="M485,974L443,1108L565,1110Z" fill="#bb8f99" stroke="#bb8f99" stroke-width="1.51"/><path d="M399,418L565,398L570,289Z" fill="#d5d5d5" stroke="#d5d5d5" stroke-width="1.51"/><path d="M473,229L399,418L570,289Z" fill="#cbcbcb" stroke="#cbcbcb" stroke-width="1.51"/><path d="M398,565L476,682L551,577Z" fill="#d2c7cb" stroke="#d2c7cb" stroke-width="1.51"/><path d="M471,-205L459,-29L548,-109Z" fill="#8f8f8f" stroke="#8f8f8f" stroke-width="1.51"/><path d="M307,1148L440,1305L443,1108Z" fill="#aa7681" stroke="#aa7681" stroke-width="1.51"/><path d="M311,-25L459,-29L471,-205Z" fill="#8c8c8c" stroke="#8c8c8c" stroke-width="1.51"/><path d="M332,411L399,418L473,229Z" fill="#c8c8c8" stroke="#c8c8c8" stroke-width="1.51"/><path d="M288,206L332,411L473,229Z" fill="#bbbbbb" stroke="#bbbbbb" stroke-width="1.51"/><path d="M407,818L331,840L485,974Z" fill="#bc9ea6" stroke="#bc9ea6" stroke-width="1.51"/><path d="M331,840L292,996L485,974Z" fill="#b5939c" stroke="#b5939c" stroke-width="1.51"/><path d="M292,996L443,1108L485,974Z" fill="#b48b95" stroke="#b48b95" stroke-width="1.51"/><path d="M311,-25L414,110L459,-29Z" fill="#999999" stroke="#999999" stroke-width="1.51"/><path d="M236,-224L311,-25L471,-205Z" fill="#7c7c7c" stroke="#7c7c7c" stroke-width="1.51"/><path d="M414,110L288,206L473,229Z" fill="#afafaf" stroke="#afafaf" stroke-width="1.51"/><path d="M302,647L407,818L476,682Z" fill="#c4b2b7" stroke="#c4b2b7" stroke-width="1.51"/><path d="M398,565L302,647L476,682Z" fill="#c9bdc1" stroke="#c9bdc1" stroke-width="1.51"/><path d="M311,-25L296,42L414,110Z" fill="#989898" stroke="#989898" stroke-width="1.51"/><path d="M307,1148L329,1334L440,1305Z" fill="#a36c74" stroke="#a36c74" stroke-width="1.51"/><path d="M320,550L398,565L399,418Z" fill="#cfcacc" stroke="#cfcacc" stroke-width="1.51"/><path d="M302,647L331,840L407,818Z" fill="#bca7ad" stroke="#bca7ad" stroke-width="1.51"/><path d="M292,996L307,1148L443,1108Z" fill="#ab7e88" stroke="#ab7e88" stroke-width="1.51"/><path d="M332,411L320,550L399,418Z" fill="#d0cfcf" stroke="#d0cfcf" stroke-width="1.51"/><path d="M296,42L288,206L414,110Z" fill="#a1a1a1" stroke="#a1a1a1" stroke-width="1.51"/><path d="M320,550L302,647L398,565Z" fill="#c7bec1" stroke="#c7bec1" stroke-width="1.51"/><path d="M156,639L181,821L302,647Z" fill="#b3a2a7" stroke="#b3a2a7" stroke-width="1.51"/><path d="M292,996L167,1038L307,1148Z" fill="#a47983" stroke="#a47983" stroke-width="1.51"/><path d="M129,1135L92,1252L307,1148Z" fill="#95636e" stroke="#95636e" stroke-width="1.51"/><path d="M236,-224L183,-42L311,-25Z" fill="#7b7b7b" stroke="#7b7b7b" stroke-width="1.51"/><path d="M136,404L99,510L320,550Z" fill="#bdbabb" stroke="#bdbabb" stroke-width="1.51"/><path d="M307,1148L92,1252L329,1334Z" fill="#98636b" stroke="#98636b" stroke-width="1.51"/><path d="M92,1252L-3,1340L329,1334Z" fill="#8b535a" stroke="#8b535a" stroke-width="1.51"/><path d="M302,647L181,821L331,840Z" fill="#b5a0a5" stroke="#b5a0a5" stroke-width="1.51"/><path d="M181,821L292,996L331,840Z" fill="#ae9098" stroke="#ae9098" stroke-width="1.51"/><path d="M136,404L320,550L332,411Z" fill="#c7c7c7" stroke="#c7c7c7" stroke-width="1.51"/><path d="M288,206L136,404L332,411Z" fill="#b8b8b8" stroke="#b8b8b8" stroke-width="1.51"/><path d="M108,189L288,206L296,42Z" fill="#9b9b9b" stroke="#9b9b9b" stroke-width="1.51"/><path d="M108,50L108,189L296,42Z" fill="#8e8e8e" stroke="#8e8e8e" stroke-width="1.51"/><path d="M156,639L302,647L320,550Z" fill="#bdb2b5" stroke="#bdb2b5" stroke-width="1.51"/><path d="M99,510L156,639L320,550Z" fill="#b9b1b3" stroke="#b9b1b3" stroke-width="1.51"/><path d="M108,189L136,404L288,206Z" fill="#a6a6a6" stroke="#a6a6a6" stroke-width="1.51"/><path d="M181,821L167,1038L292,996Z" fill="#a5828b" stroke="#a5828b" stroke-width="1.51"/><path d="M167,1038L129,1135L307,1148Z" fill="#9b6e78" stroke="#9b6e78" stroke-width="1.51"/><path d="M183,-42L296,42L311,-25Z" fill="#898989" stroke="#898989" stroke-width="1.51"/><path d="M183,-42L108,50L296,42Z" fill="#868686" stroke="#868686" stroke-width="1.51"/><path d="M145,-229L183,-42L236,-224Z" fill="#6c6c6c" stroke="#6c6c6c" stroke-width="1.51"/><path d="M108,189L35,371L136,404Z" fill="#a5a5a5" stroke="#a5a5a5" stroke-width="1.51"/><path d="M-56,665L-5,827L156,639Z" fill="#a08f94" stroke="#a08f94" stroke-width="1.51"/><path d="M-5,827L-26,1035L167,1038Z" fill="#937079" stroke="#937079" stroke-width="1.51"/><path d="M-5,827L167,1038L181,821Z" fill="#9e8088" stroke="#9e8088" stroke-width="1.51"/><path d="M156,639L-5,827L181,821Z" fill="#a59196" stroke="#a59196" stroke-width="1.51"/><path d="M145,-229L-64,-94L183,-42Z" fill="#686868" stroke="#686868" stroke-width="1.51"/><path d="M-64,-94L108,50L183,-42Z" fill="#747474" stroke="#747474" stroke-width="1.51"/><path d="M30,196L35,371L108,189Z" fill="#999999" stroke="#999999" stroke-width="1.51"/><path d="M-33,-235L-64,-94L145,-229Z" fill="#595959" stroke="#595959" stroke-width="1.51"/><path d="M-20,1089L129,1135L167,1038Z" fill="#926670" stroke="#926670" stroke-width="1.51"/><path d="M-26,1035L-20,1089L167,1038Z" fill="#8e666f" stroke="#8e666f" stroke-width="1.51"/><path d="M99,510L-18,554L156,639Z" fill="#aea6a8" stroke="#aea6a8" stroke-width="1.51"/><path d="M-18,554L-56,665L156,639Z" fill="#a59a9e" stroke="#a59a9e" stroke-width="1.51"/><path d="M108,50L30,196L108,189Z" fill="#8c8c8c" stroke="#8c8c8c" stroke-width="1.51"/><path d="M-32,127L30,196L108,50Z" fill="#868686" stroke="#868686" stroke-width="1.51"/><path d="M35,371L99,510L136,404Z" fill="#b3b3b3" stroke="#b3b3b3" stroke-width="1.51"/><path d="M-20,1089L92,1252L129,1135Z" fill="#8b5b65" stroke="#8b5b65" stroke-width="1.51"/><path d="M35,371L-18,554L99,510Z" fill="#afadad" stroke="#afadad" stroke-width="1.51"/><path d="M-64,-94L-32,127L108,50Z" fill="#757575" stroke="#757575" stroke-width="1.51"/><path d="M-20,1089L-115,1277L92,1252Z" fill="#804f58" stroke="#804f58" stroke-width="1.51"/><path d="M-115,1277L-3,1340L92,1252Z" fill="#7d484f" stroke="#7d484f" stroke-width="1.51"/><path d="M-116,984L-26,1035L-5,827Z" fill="#8a6972" stroke="#8a6972" stroke-width="1.51"/><path d="M-128,563L-18,554L35,371Z" fill="#a5a2a3" stroke="#a5a2a3" stroke-width="1.51"/><path d="M-207,360L-128,563L35,371Z" fill="#9f9f9f" stroke="#9f9f9f" stroke-width="1.51"/><path d="M30,196L-124,190L35,371Z" fill="#919191" stroke="#919191" stroke-width="1.51"/><path d="M-124,190L-207,360L35,371Z" fill="#8f8f8f" stroke="#8f8f8f" stroke-width="1.51"/><path d="M-64,-94L-156,121L-32,127Z" fill="#6f6f6f" stroke="#6f6f6f" stroke-width="1.51"/><path d="M-56,665L-120,819L-5,827Z" fill="#937e84" stroke="#937e84" stroke-width="1.51"/><path d="M-32,127L-124,190L30,196Z" fill="#848484" stroke="#848484" stroke-width="1.51"/><path d="M-205,1180L-115,1277L-20,1089Z" fill="#764751" stroke="#764751" stroke-width="1.51"/><path d="M-128,563L-56,665L-18,554Z" fill="#9c9395" stroke="#9c9395" stroke-width="1.51"/><path d="M-120,819L-116,984L-5,827Z" fill="#8b6f76" stroke="#8b6f76" stroke-width="1.51"/><path d="M-216,-90L-156,121L-64,-94Z" fill="#5f5f5f" stroke="#5f5f5f" stroke-width="1.51"/><path d="M-215,-226L-64,-94L-33,-235Z" fill="#4d4d4d" stroke="#4d4d4d" stroke-width="1.51"/><path d="M-26,1035L-116,984L-20,1089Z" fill="#855e68" stroke="#855e68" stroke-width="1.51"/><path d="M-116,984L-205,1180L-20,1089Z" fill="#7c525c" stroke="#7c525c" stroke-width="1.51"/><path d="M-211,711L-120,819L-56,665Z" fill="#8e7c81" stroke="#8e7c81" stroke-width="1.51"/><path d="M-156,121L-124,190L-32,127Z" fill="#7a7a7a" stroke="#7a7a7a" stroke-width="1.51"/><path d="M-215,-226L-216,-90L-64,-94Z" fill="#4e4e4e" stroke="#4e4e4e" stroke-width="1.51"/><path d="M-128,563L-211,711L-56,665Z" fill="#92868a" stroke="#92868a" stroke-width="1.51"/><path d="M-120,819L-211,711L-116,984Z" fill="#856d74" stroke="#856d74" stroke-width="1.51"/><path d="M-211,711L-205,1180L-116,984Z" fill="#7c5b64" stroke="#7c5b64" stroke-width="1.51"/><path d="M-156,121L-207,360L-124,190Z" fill="#7e7e7e" stroke="#7e7e7e" stroke-width="1.51"/><path d="M-207,360L-211,711L-128,563Z" fill="#938d8f" stroke="#938d8f" stroke-width="1.51"/><path d="M-216,-90L-207,360L-156,121Z" fill="#6f6f6f" stroke="#6f6f6f" stroke-width="1.51"/><path d="M-216,-90L-211,711L-207,360Z" fill="#868686" stroke="#868686" stroke-width="1.51"/></svg>