<svg xmlns="http://www.w3.org/2000/svg" width="1920" height="1080"><path d="M-33,-235L145,-229L567,-256Z" fill="#efefef" stroke="#efefef" stroke-width="1.51"/><path d="M567,-256L865,-229L1194,-225Z" fill="#cdcdcd" stroke="#cdcdcd" stroke-width="1.51"/><path d="M1054,1321L909,1329L1600,1337Z" fill="#404040" stroke="#404040" stroke-width="1.51"/><path d="M1194,-225L1499,-216L1915,-218Z" fill="#a4a4a4" stroke="#a4a4a4" stroke-width="1.51"/><path d="M567,-256L1194,-225L1915,-218Z" fill="#b7b7b7" stroke="#b7b7b7" stroke-width="1.51"/><path d="M1499,-216L1618,-200L1915,-218Z" fill="#989898" stroke="#989898" stroke-width="1.51"/><path d="M1740,1285L1600,1337L1973,1333Z" fill="#202020" stroke="#202020" stroke-width="1.51"/><path d="M1910,1108L1973,1333L2062,1331Z" fill="#181818" stroke="#181818" stroke-width="1.51"/><path d="M1976,-31L2034,81L2102,-64Z" fill="#747474" stroke="#747474" stroke-width="1.51"/><path d="M1915,-218L1976,-31L2102,-64Z" fill="#7b7b7b" stroke="#7b7b7b" stroke-width="1.51"/><path d="M1920,279L1973,403L2103,222Z" fill="#656565" stroke="#656565" stroke-width="1.51"/><path d="M2102,-64L2034,81L2103,222Z" fill="#6d6d6d" stroke="#6d6d6d" stroke-width="1.51"/><path d="M1895,887L1972,1017L2110,827Z" fill="#373737" stroke="#373737" stroke-width="1.51"/><path d="M2103,222L1973,403L2120,414Z" fill="#5f5f5f" stroke="#5f5f5f" stroke-width="1.51"/><path d="M1975,521L2110,556L2120,414Z" fill="#525252" stroke="#525252" stroke-width="1.51"/><path d="M1973,403L1975,521L2120,414Z" fill="#595959" stroke="#595959" stroke-width="1.51"/><path d="M1916,642L2110,827L2124,643Z" fill="#434343" stroke="#434343" stroke-width="1.51"/><path d="M2120,414L2110,556L2124,643Z" fill="#4b4b4b" stroke="#4b4b4b" stroke-width="1.51"/><path d="M2110,827L1972,1017L2129,951Z" fill="#313131" stroke="#313131" stroke-width="1.51"/><path d="M2124,643L2110,827L2129,951Z" fill="#373737" stroke="#373737" stroke-width="1.51"/><path d="M1915,-218L2102,-64L2130,-197Z" fill="#7a7a7a" stroke="#7a7a7a" stroke-width="1.51"/><path d="M2103,222L2120,414L2130,-197Z" fill="#686868" stroke="#686868" stroke-width="1.51"/><path d="M2102,-64L2103,222L2130,-197Z" fill="#707070" stroke="#707070" stroke-width="1.51"/><path d="M2120,414L2124,643L2130,-197Z" fill="#5f5f5f" stroke="#5f5f5f" stroke-width="1.51"/><path d="M1910,1108L2062,1331L2133,1092Z" fill="#1b1b1b" stroke="#1b1b1b" stroke-width="1.51"/><path d="M1972,1017L1910,1108L2133,1092Z" fill="#272727" stroke="#272727" stroke-width="1.51"/><path d="M2129,951L1972,1017L2133,1092Z" fill="#282828" stroke="#282828" stroke-width="1.51"/><path d="M2124,643L2129,951L2133,1092Z" fill="#313131" stroke="#313131" stroke-width="1.51"/><path d="M2110,556L1975,521L2124,643Z" fill="#4b4b4b" stroke="#4b4b4b" stroke-width="1.51"/><path d="M1975,521L1916,642L2124,643Z" fill="#4d4d4d" stroke="#4d4d4d" stroke-width="1.51"/><path d="M1916,642L1895,887L2110,827Z" fill="#414141" stroke="#414141" stroke-width="1.51"/><path d="M2034,81L1920,279L2103,222Z" fill="#6b6b6b" stroke="#6b6b6b" stroke-width="1.51"/><path d="M1618,-200L1815,-178L1915,-218Z" fill="#8e8e8e" stroke="#8e8e8e" stroke-width="1.51"/><path d="M1931,81L1920,279L2034,81Z" fill="#717171" stroke="#717171" stroke-width="1.51"/><path d="M1976,-31L1931,81L2034,81Z" fill="#757575" stroke="#757575" stroke-width="1.51"/><path d="M1483,1294L1054,1321L1600,1337Z" fill="#373737" stroke="#373737" stroke-width="1.51"/><path d="M1738,1162L1740,1285L1910,1108Z" fill="#272727" stroke="#272727" stroke-width="1.51"/><path d="M1828,857L1895,887L1916,642Z" fill="#454545" stroke="#454545" stroke-width="1.51"/><path d="M1796,662L1828,857L1916,642Z" fill="#4d4d4d" stroke="#4d4d4d" stroke-width="1.51"/><path d="M1817,107L1920,279L1931,81Z" fill="#757575" stroke="#757575" stroke-width="1.51"/><path d="M1910,1108L1740,1285L1973,1333Z" fill="#1e1e1e" stroke="#1e1e1e" stroke-width="1.51"/><path d="M1920,279L1835,341L1973,403Z" fill="#696969" stroke="#696969" stroke-width="1.51"/><path d="M1748,569L1916,642L1975,521Z" fill="#565656" stroke="#565656" stroke-width="1.51"/><path d="M1973,403L1835,341L1975,521Z" fill="#606060" stroke="#606060" stroke-width="1.51"/><path d="M1835,341L1748,569L1975,521Z" fill="#606060" stroke="#606060" stroke-width="1.51"/><path d="M1915,-218L1815,-178L1976,-31Z" fill="#838383" stroke="#838383" stroke-width="1.51"/><path d="M1749,-49L1931,81L1976,-31Z" fill="#7d7d7d" stroke="#7d7d7d" stroke-width="1.51"/><path d="M1815,-178L1749,-49L1976,-31Z" fill="#858585" stroke="#858585" stroke-width="1.51"/><path d="M1895,887L1758,979L1972,1017Z" fill="#393939" stroke="#393939" stroke-width="1.51"/><path d="M1758,979L1910,1108L1972,1017Z" fill="#313131" stroke="#313131" stroke-width="1.51"/><path d="M1204,1277L1054,1321L1483,1294Z" fill="#3f3f3f" stroke="#3f3f3f" stroke-width="1.51"/><path d="M1748,569L1796,662L1916,642Z" fill="#575757" stroke="#575757" stroke-width="1.51"/><path d="M1817,107L1834,289L1920,279Z" fill="#737373" stroke="#737373" stroke-width="1.51"/><path d="M1834,289L1835,341L1920,279Z" fill="#6e6e6e" stroke="#6e6e6e" stroke-width="1.51"/><path d="M1749,-49L1817,107L1931,81Z" fill="#7f7f7f" stroke="#7f7f7f" stroke-width="1.51"/><path d="M1828,857L1758,979L1895,887Z" fill="#414141" stroke="#414141" stroke-width="1.51"/><path d="M1758,979L1738,1162L1910,1108Z" fill="#313131" stroke="#313131" stroke-width="1.51"/><path d="M1749,-49L1642,71L1817,107Z" fill="#878787" stroke="#878787" stroke-width="1.51"/><path d="M1642,71L1605,283L1817,107Z" fill="#868686" stroke="#868686" stroke-width="1.51"/><path d="M1796,662L1660,708L1828,857Z" fill="#525252" stroke="#525252" stroke-width="1.51"/><path d="M1660,708L1637,819L1828,857Z" fill="#525252" stroke="#525252" stroke-width="1.51"/><path d="M1817,107L1605,283L1834,289Z" fill="#7c7c7c" stroke="#7c7c7c" stroke-width="1.51"/><path d="M1630,416L1748,569L1835,341Z" fill="#6d6d6d" stroke="#6d6d6d" stroke-width="1.51"/><path d="M1834,289L1605,283L1835,341Z" fill="#777777" stroke="#777777" stroke-width="1.51"/><path d="M1605,283L1630,416L1835,341Z" fill="#7a7a7a" stroke="#7a7a7a" stroke-width="1.51"/><path d="M1665,1120L1738,1162L1758,979Z" fill="#363636" stroke="#363636" stroke-width="1.51"/><path d="M1637,819L1758,979L1828,857Z" fill="#494949" stroke="#494949" stroke-width="1.51"/><path d="M1674,-33L1642,71L1749,-49Z" fill="#8e8e8e" stroke="#8e8e8e" stroke-width="1.51"/><path d="M1618,-200L1749,-49L1815,-178Z" fill="#919191" stroke="#919191" stroke-width="1.51"/><path d="M1748,569L1660,708L1796,662Z" fill="#5c5c5c" stroke="#5c5c5c" stroke-width="1.51"/><path d="M1738,1162L1665,1120L1740,1285Z" fill="#2d2d2d" stroke="#2d2d2d" stroke-width="1.51"/><path d="M1619,562L1660,708L1748,569Z" fill="#636363" stroke="#636363" stroke-width="1.51"/><path d="M1630,416L1619,562L1748,569Z" fill="#6d6d6d" stroke="#6d6d6d" stroke-width="1.51"/><path d="M1618,-200L1674,-33L1749,-49Z" fill="#939393" stroke="#939393" stroke-width="1.51"/><path d="M1611,1025L1665,1120L1758,979Z" fill="#3f3f3f" stroke="#3f3f3f" stroke-width="1.51"/><path d="M1637,819L1611,1025L1758,979Z" fill="#4a4a4a" stroke="#4a4a4a" stroke-width="1.51"/><path d="M1665,1120L1600,1337L1740,1285Z" fill="#2c2c2c" stroke="#2c2c2c" stroke-width="1.51"/><path d="M1532,524L1619,562L1630,416Z" fill="#747474" stroke="#747474" stroke-width="1.51"/><path d="M1495,1021L1611,1025L1637,819Z" fill="#505050" stroke="#505050" stroke-width="1.51"/><path d="M1496,74L1605,283L1642,71Z" fill="#909090" stroke="#909090" stroke-width="1.51"/><path d="M1483,1294L1600,1337L1665,1120Z" fill="#323232" stroke="#323232" stroke-width="1.51"/><path d="M1483,1123L1483,1294L1665,1120Z" fill="#3a3a3a" stroke="#3a3a3a" stroke-width="1.51"/><path d="M1618,-200L1442,-70L1674,-33Z" fill="#9d9d9d" stroke="#9d9d9d" stroke-width="1.51"/><path d="M1496,74L1642,71L1674,-33Z" fill="#939393" stroke="#939393" stroke-width="1.51"/><path d="M1442,-70L1496,74L1674,-33Z" fill="#9b9b9b" stroke="#9b9b9b" stroke-width="1.51"/><path d="M145,-229L236,-224L567,-256Z" fill="#ebebeb" stroke="#ebebeb" stroke-width="1.51"/><path d="M1496,74L1474,271L1605,283Z" fill="#909090" stroke="#909090" stroke-width="1.51"/><path d="M1467,801L1495,1021L1637,819Z" fill="#595959" stroke="#595959" stroke-width="1.51"/><path d="M1619,562L1454,640L1660,708Z" fill="#696969" stroke="#696969" stroke-width="1.51"/><path d="M1467,801L1637,819L1660,708Z" fill="#5e5e5e" stroke="#5e5e5e" stroke-width="1.51"/><path d="M1611,1025L1483,1123L1665,1120Z" fill="#414141" stroke="#414141" stroke-width="1.51"/><path d="M1454,640L1467,801L1660,708Z" fill="#676767" stroke="#676767" stroke-width="1.51"/><path d="M1499,-216L1442,-70L1618,-200Z" fill="#a2a2a2" stroke="#a2a2a2" stroke-width="1.51"/><path d="M1605,283L1449,369L1630,416Z" fill="#848484" stroke="#848484" stroke-width="1.51"/><path d="M1194,-225L1376,-176L1499,-216Z" fill="#aeaeae" stroke="#aeaeae" stroke-width="1.51"/><path d="M1495,1021L1483,1123L1611,1025Z" fill="#484848" stroke="#484848" stroke-width="1.51"/><path d="M1532,524L1454,640L1619,562Z" fill="#727272" stroke="#727272" stroke-width="1.51"/><path d="M1449,369L1532,524L1630,416Z" fill="#7d7d7d" stroke="#7d7d7d" stroke-width="1.51"/><path d="M1378,1255L1204,1277L1483,1294Z" fill="#3c3c3c" stroke="#3c3c3c" stroke-width="1.51"/><path d="M1474,271L1449,369L1605,283Z" fill="#8a8a8a" stroke="#8a8a8a" stroke-width="1.51"/><path d="M440,1305L329,1334L909,1329Z" fill="#626262" stroke="#626262" stroke-width="1.51"/><path d="M1483,1123L1378,1255L1483,1294Z" fill="#3b3b3b" stroke="#3b3b3b" stroke-width="1.51"/><path d="M1467,801L1359,850L1495,1021Z" fill="#5d5d5d" stroke="#5d5d5d" stroke-width="1.51"/><path d="M1361,205L1474,271L1496,74Z" fill="#969696" stroke="#969696" stroke-width="1.51"/><path d="M1376,-176L1442,-70L1499,-216Z" fill="#a7a7a7" stroke="#a7a7a7" stroke-width="1.51"/><path d="M1310,564L1454,640L1532,524Z" fill="#787878" stroke="#787878" stroke-width="1.51"/><path d="M1449,369L1310,564L1532,524Z" fill="#7f7f7f" stroke="#7f7f7f" stroke-width="1.51"/><path d="M1356,371L1310,564L1449,369Z" fill="#878787" stroke="#878787" stroke-width="1.51"/><path d="M1454,640L1312,704L1467,801Z" fill="#6d6d6d" stroke="#6d6d6d" stroke-width="1.51"/><path d="M1347,1125L1378,1255L1483,1123Z" fill="#424242" stroke="#424242" stroke-width="1.51"/><path d="M1359,850L1303,991L1495,1021Z" fill="#5b5b5b" stroke="#5b5b5b" stroke-width="1.51"/><path d="M1347,1125L1483,1123L1495,1021Z" fill="#484848" stroke="#484848" stroke-width="1.51"/><path d="M1442,-70L1327,127L1496,74Z" fill="#9f9f9f" stroke="#9f9f9f" stroke-width="1.51"/><path d="M1327,127L1361,205L1496,74Z" fill="#9c9c9c" stroke="#9c9c9c" stroke-width="1.51"/><path d="M1303,991L1347,1125L1495,1021Z" fill="#515151" stroke="#515151" stroke-width="1.51"/><path d="M865,-229L1074,-198L1194,-225Z" fill="#c2c2c2" stroke="#c2c2c2" stroke-width="1.51"/><path d="M1312,704L1359,850L1467,801Z" fill="#696969" stroke="#696969" stroke-width="1.51"/><path d="M1356,371L1449,369L1474,271Z" fill="#8d8d8d" stroke="#8d8d8d" stroke-width="1.51"/><path d="M1361,205L1356,371L1474,271Z" fill="#939393" stroke="#939393" stroke-width="1.51"/><path d="M1286,-103L1327,127L1442,-70Z" fill="#a7a7a7" stroke="#a7a7a7" stroke-width="1.51"/><path d="M1310,564L1312,704L1454,640Z" fill="#777777" stroke="#777777" stroke-width="1.51"/><path d="M1376,-176L1286,-103L1442,-70Z" fill="#aaaaaa" stroke="#aaaaaa" stroke-width="1.51"/><path d="M567,-256L699,-226L865,-229Z" fill="#d8d8d8" stroke="#d8d8d8" stroke-width="1.51"/><path d="M626,1280L440,1305L909,1329Z" fill="#5f5f5f" stroke="#5f5f5f" stroke-width="1.51"/><path d="M1286,-103L1204,-70L1327,127Z" fill="#acacac" stroke="#acacac" stroke-width="1.51"/><path d="M1190,1141L1204,1277L1347,1125Z" fill="#494949" stroke="#494949" stroke-width="1.51"/><path d="M1180,376L1310,564L1356,371Z" fill="#8c8c8c" stroke="#8c8c8c" stroke-width="1.51"/><path d="M1170,253L1356,371L1361,205Z" fill="#999999" stroke="#999999" stroke-width="1.51"/><path d="M1194,-225L1286,-103L1376,-176Z" fill="#b1b1b1" stroke="#b1b1b1" stroke-width="1.51"/><path d="M1347,1125L1204,1277L1378,1255Z" fill="#424242" stroke="#424242" stroke-width="1.51"/><path d="M1170,253L1180,376L1356,371Z" fill="#999999" stroke="#999999" stroke-width="1.51"/><path d="M1310,564L1226,649L1312,704Z" fill="#7a7a7a" stroke="#7a7a7a" stroke-width="1.51"/><path d="M1204,-70L1134,81L1327,127Z" fill="#ababab" stroke="#ababab" stroke-width="1.51"/><path d="M1184,968L1303,991L1359,850Z" fill="#636363" stroke="#636363" stroke-width="1.51"/><path d="M1152,831L1184,968L1359,850Z" fill="#696969" stroke="#696969" stroke-width="1.51"/><path d="M1312,704L1152,831L1359,850Z" fill="#6e6e6e" stroke="#6e6e6e" stroke-width="1.51"/><path d="M1327,127L1170,253L1361,205Z" fill="#9f9f9f" stroke="#9f9f9f" stroke-width="1.51"/><path d="M1303,991L1190,1141L1347,1125Z" fill="#525252" stroke="#525252" stroke-width="1.51"/><path d="M1180,376L1136,583L1310,564Z" fill="#8a8a8a" stroke="#8a8a8a" stroke-width="1.51"/><path d="M1134,81L1170,253L1327,127Z" fill="#a6a6a6" stroke="#a6a6a6" stroke-width="1.51"/><path d="M1184,968L1190,1141L1303,991Z" fill="#5b5b5b" stroke="#5b5b5b" stroke-width="1.51"/><path d="M1226,649L1152,831L1312,704Z" fill="#767676" stroke="#767676" stroke-width="1.51"/><path d="M1136,583L1226,649L1310,564Z" fill="#818181" stroke="#818181" stroke-width="1.51"/><path d="M1194,-225L1204,-70L1286,-103Z" fill="#b3b3b3" stroke="#b3b3b3" stroke-width="1.51"/><path d="M1134,81L1085,200L1170,253Z" fill="#a9a9a9" stroke="#a9a9a9" stroke-width="1.51"/><path d="M1184,968L1028,1024L1190,1141Z" fill="#5e5e5e" stroke="#5e5e5e" stroke-width="1.51"/><path d="M1071,48L1134,81L1204,-70Z" fill="#b2b2b2" stroke="#b2b2b2" stroke-width="1.51"/><path d="M1194,-225L1074,-198L1204,-70Z" fill="#b9b9b9" stroke="#b9b9b9" stroke-width="1.51"/><path d="M1022,685L1152,831L1226,649Z" fill="#7c7c7c" stroke="#7c7c7c" stroke-width="1.51"/><path d="M1136,583L1022,685L1226,649Z" fill="#838383" stroke="#838383" stroke-width="1.51"/><path d="M1018,551L1136,583L1180,376Z" fill="#909090" stroke="#909090" stroke-width="1.51"/><path d="M998,380L1018,551L1180,376Z" fill="#9a9a9a" stroke="#9a9a9a" stroke-width="1.51"/><path d="M1190,1141L1029,1176L1204,1277Z" fill="#4d4d4d" stroke="#4d4d4d" stroke-width="1.51"/><path d="M1029,1176L1054,1321L1204,1277Z" fill="#4b4b4b" stroke="#4b4b4b" stroke-width="1.51"/><path d="M1074,-198L1003,-111L1204,-70Z" fill="#bbbbbb" stroke="#bbbbbb" stroke-width="1.51"/><path d="M1003,-111L1071,48L1204,-70Z" fill="#b8b8b8" stroke="#b8b8b8" stroke-width="1.51"/><path d="M1170,253L998,380L1180,376Z" fill="#a0a0a0" stroke="#a0a0a0" stroke-width="1.51"/><path d="M1152,831L986,860L1184,968Z" fill="#707070" stroke="#707070" stroke-width="1.51"/><path d="M1028,1024L1029,1176L1190,1141Z" fill="#595959" stroke="#595959" stroke-width="1.51"/><path d="M986,860L1028,1024L1184,968Z" fill="#6d6d6d" stroke="#6d6d6d" stroke-width="1.51"/><path d="M1085,200L998,380L1170,253Z" fill="#a5a5a5" stroke="#a5a5a5" stroke-width="1.51"/><path d="M1022,685L986,860L1152,831Z" fill="#7b7b7b" stroke="#7b7b7b" stroke-width="1.51"/><path d="M1071,48L1085,200L1134,81Z" fill="#b0b0b0" stroke="#b0b0b0" stroke-width="1.51"/><path d="M1018,551L1022,685L1136,583Z" fill="#8a8a8a" stroke="#8a8a8a" stroke-width="1.51"/><path d="M910,251L998,380L1085,200Z" fill="#ababab" stroke="#ababab" stroke-width="1.51"/><path d="M1071,48L902,107L1085,200Z" fill="#b4b4b4" stroke="#b4b4b4" stroke-width="1.51"/><path d="M902,107L910,251L1085,200Z" fill="#b3b3b3" stroke="#b3b3b3" stroke-width="1.51"/><path d="M1029,1176L909,1329L1054,1321Z" fill="#4f4f4f" stroke="#4f4f4f" stroke-width="1.51"/><path d="M1003,-111L875,-54L1071,48Z" fill="#bfbfbf" stroke="#bfbfbf" stroke-width="1.51"/><path d="M875,-54L902,107L1071,48Z" fill="#bcbcbc" stroke="#bcbcbc" stroke-width="1.51"/><path d="M865,-229L1003,-111L1074,-198Z" fill="#c4c4c4" stroke="#c4c4c4" stroke-width="1.51"/><path d="M998,380L880,540L1018,551Z" fill="#9a9a9a" stroke="#9a9a9a" stroke-width="1.51"/><path d="M880,734L986,860L1022,685Z" fill="#838383" stroke="#838383" stroke-width="1.51"/><path d="M986,860L892,1002L1028,1024Z" fill="#727272" stroke="#727272" stroke-width="1.51"/><path d="M1028,1024L892,1002L1029,1176Z" fill="#646464" stroke="#646464" stroke-width="1.51"/><path d="M912,365L880,540L998,380Z" fill="#a2a2a2" stroke="#a2a2a2" stroke-width="1.51"/><path d="M910,251L912,365L998,380Z" fill="#ababab" stroke="#ababab" stroke-width="1.51"/><path d="M1018,551L880,540L1022,685Z" fill="#909090" stroke="#909090" stroke-width="1.51"/><path d="M880,540L880,734L1022,685Z" fill="#8e8e8e" stroke="#8e8e8e" stroke-width="1.51"/><path d="M837,1187L909,1329L1029,1176Z" fill="#565656" stroke="#565656" stroke-width="1.51"/><path d="M892,1002L837,1187L1029,1176Z" fill="#616161" stroke="#616161" stroke-width="1.51"/><path d="M887,870L892,1002L986,860Z" fill="#797979" stroke="#797979" stroke-width="1.51"/><path d="M880,734L887,870L986,860Z" fill="#818181" stroke="#818181" stroke-width="1.51"/><path d="M865,-229L875,-54L1003,-111Z" fill="#c7c7c7" stroke="#c7c7c7" stroke-width="1.51"/><path d="M865,-229L766,-43L875,-54Z" fill="#cbcbcb" stroke="#cbcbcb" stroke-width="1.51"/><path d="M734,556L739,739L880,734Z" fill="#969696" stroke="#969696" stroke-width="1.51"/><path d="M734,556L880,734L880,540Z" fill="#989898" stroke="#989898" stroke-width="1.51"/><path d="M773,344L734,556L880,540Z" fill="#a6a6a6" stroke="#a6a6a6" stroke-width="1.51"/><path d="M880,734L779,836L887,870Z" fill="#858585" stroke="#858585" stroke-width="1.51"/><path d="M727,1162L837,1187L892,1002Z" fill="#686868" stroke="#686868" stroke-width="1.51"/><path d="M887,870L783,948L892,1002Z" fill="#7b7b7b" stroke="#7b7b7b" stroke-width="1.51"/><path d="M753,104L740,239L902,107Z" fill="#c0c0c0" stroke="#c0c0c0" stroke-width="1.51"/><path d="M875,-54L766,-43L902,107Z" fill="#c5c5c5" stroke="#c5c5c5" stroke-width="1.51"/><path d="M766,-43L753,104L902,107Z" fill="#c5c5c5" stroke="#c5c5c5" stroke-width="1.51"/><path d="M717,1255L626,1280L909,1329Z" fill="#5b5b5b" stroke="#5b5b5b" stroke-width="1.51"/><path d="M837,1187L717,1255L909,1329Z" fill="#5a5a5a" stroke="#5a5a5a" stroke-width="1.51"/><path d="M902,107L740,239L910,251Z" fill="#b9b9b9" stroke="#b9b9b9" stroke-width="1.51"/><path d="M740,239L773,344L910,251Z" fill="#b7b7b7" stroke="#b7b7b7" stroke-width="1.51"/><path d="M910,251L773,344L912,365Z" fill="#b0b0b0" stroke="#b0b0b0" stroke-width="1.51"/><path d="M773,344L880,540L912,365Z" fill="#a8a8a8" stroke="#a8a8a8" stroke-width="1.51"/><path d="M783,948L727,1162L892,1002Z" fill="#737373" stroke="#737373" stroke-width="1.51"/><path d="M699,-226L766,-43L865,-229Z" fill="#d1d1d1" stroke="#d1d1d1" stroke-width="1.51"/><path d="M739,739L779,836L880,734Z" fill="#8c8c8c" stroke="#8c8c8c" stroke-width="1.51"/><path d="M779,836L783,948L887,870Z" fill="#828282" stroke="#828282" stroke-width="1.51"/><path d="M617,1032L727,1162L783,948Z" fill="#777777" stroke="#777777" stroke-width="1.51"/><path d="M727,1162L717,1255L837,1187Z" fill="#636363" stroke="#636363" stroke-width="1.51"/><path d="M734,556L585,672L739,739Z" fill="#9e9e9e" stroke="#9e9e9e" stroke-width="1.51"/><path d="M699,-226L548,-109L766,-43Z" fill="#d7d7d7" stroke="#d7d7d7" stroke-width="1.51"/><path d="M593,54L753,104L766,-43Z" fill="#cdcdcd" stroke="#cdcdcd" stroke-width="1.51"/><path d="M565,398L734,556L773,344Z" fill="#b1b1b1" stroke="#b1b1b1" stroke-width="1.51"/><path d="M779,836L625,879L783,948Z" fill="#878787" stroke="#878787" stroke-width="1.51"/><path d="M625,879L617,1032L783,948Z" fill="#858585" stroke="#858585" stroke-width="1.51"/><path d="M739,739L625,879L779,836Z" fill="#8d8d8d" stroke="#8d8d8d" stroke-width="1.51"/><path d="M740,239L570,289L773,344Z" fill="#bdbdbd" stroke="#bdbdbd" stroke-width="1.51"/><path d="M570,289L565,398L773,344Z" fill="#bdbdbd" stroke="#bdbdbd" stroke-width="1.51"/><path d="M593,54L740,239L753,104Z" fill="#c8c8c8" stroke="#c8c8c8" stroke-width="1.51"/><path d="M548,-109L593,54L766,-43Z" fill="#d5d5d5" stroke="#d5d5d5" stroke-width="1.51"/><path d="M593,54L570,289L740,239Z" fill="#c7c7c7" stroke="#c7c7c7" stroke-width="1.51"/><path d="M617,1032L565,1110L727,1162Z" fill="#747474" stroke="#747474" stroke-width="1.51"/><path d="M551,577L585,672L734,556Z" fill="#a5a5a5" stroke="#a5a5a5" stroke-width="1.51"/><path d="M565,398L551,577L734,556Z" fill="#aeaeae" stroke="#aeaeae" stroke-width="1.51"/><path d="M585,672L625,879L739,739Z" fill="#969696" stroke="#969696" stroke-width="1.51"/><path d="M626,1280L717,1255L727,1162Z" fill="#646464" stroke="#646464" stroke-width="1.51"/><path d="M565,1110L626,1280L727,1162Z" fill="#6b6b6b" stroke="#6b6b6b" stroke-width="1.51"/><path d="M567,-256L548,-109L699,-226Z" fill="#dddddd" stroke="#dddddd" stroke-width="1.51"/><path d="M236,-224L471,-205L567,-256Z" fill="#e7e7e7" stroke="#e7e7e7" stroke-width="1.51"/><path d="M414,110L473,229L593,54Z" fill="#d2d2d2" stroke="#d2d2d2" stroke-width="1.51"/><path d="M548,-109L459,-29L593,54Z" fill="#d9d9d9" stroke="#d9d9d9" stroke-width="1.51"/><path d="M473,229L570,289L593,54Z" fill="#cccccc" stroke="#cccccc" stroke-width="1.51"/><path d="M407,818L485,974L625,879Z" fill="#929292" stroke="#929292" stroke-width="1.51"/><path d="M585,672L476,682L625,879Z" fill="#9b9b9b" stroke="#9b9b9b" stroke-width="1.51"/><path d="M476,682L407,818L625,879Z" fill="#9a9a9a" stroke="#9a9a9a" stroke-width="1.51"/><path d="M485,974L617,1032L625,879Z" fill="#888888" stroke="#888888" stroke-width="1.51"/><path d="M565,1110L440,1305L626,1280Z" fill="#6a6a6a" stroke="#6a6a6a" stroke-width="1.51"/><path d="M443,1108L440,1305L565,1110Z" fill="#727272" stroke="#727272" stroke-width="1.51"/><path d="M471,-205L548,-109L567,-256Z" fill="#e0e0e0" stroke="#e0e0e0" stroke-width="1.51"/><path d="M485,974L565,1110L617,1032Z" fill="#808080" stroke="#808080" stroke-width="1.51"/><path d="M399,418L551,577L565,398Z" fill="#b7b7b7" stroke="#b7b7b7" stroke-width="1.51"/><path d="M551,577L476,682L585,672Z" fill="#a5a5a5" stroke="#a5a5a5" stroke-width="1.51"/><path d="M459,-29L414,110L593,54Z" fill="#d7d7d7" stroke="#d7d7d7" stroke-width="1.51"/><path d="M399,418L398,565L551,577Z" fill="#b5b5b5" stroke="#b5b5b5" stroke-width="1.51"/><path d="M485,974L443,1108L565,1110Z" fill="#7f7f7f" stroke="#7f7f7f" stroke-width="1.51"/><path d="M399,418L565,398L570,289Z" fill="#c0c0c0" stroke="#c0c0c0" stroke-width="1.51"/><path d="M473,229L399,418L570,289Z" fill="#c7c7c7" stroke="#c7c7c7" stroke-width="1.51"/><path d="M398,565L476,682L551,577Z" fill="#ababab" stroke="#ababab" stroke-width="1.51"/><path d="M471,-205L459,-29L548,-109Z" fill="#e0e0e0" stroke="#e0e0e0" stroke-width="1.51"/><path d="M307,1148L440,1305L443,1108Z" fill="#757575" stroke="#757575" stroke-width="1.51"/><path d="M311,-25L459,-29L471,-205Z" fill="#e2e2e2" stroke="#e2e2e2" stroke-width="1.51"/><path d="M332,411L399,418L473,229Z" fill="#c7c7c7" stroke="#c7c7c7" stroke-width="1.51"/><path d="M288,206L332,411L473,229Z" fill="#cecece" stroke="#cecece" stroke-width="1.51"/><path d="M407,818L331,840L485,974Z" fill="#979797" stroke="#979797" stroke-width="1.51"/><path d="M331,840L292,996L485,974Z" fill="#939393" stroke="#939393" stroke-width="1.51"/><path d="M292,996L443,1108L485,974Z" fill="#878787" stroke="#878787" stroke-width="1.51"/><path d="M311,-25L414,110L459,-29Z" fill="#dddddd" stroke="#dddddd" stroke-width="1.51"/><path d="M236,-224L311,-25L471,-205Z" fill="#e8e8e8" stroke="#e8e8e8" stroke-width="1.51"/><path d="M414,110L288,206L473,229Z" fill="#d4d4d4" stroke="#d4d4d4" stroke-width="1.51"/><path d="M302,647L407,818L476,682Z" fill="#a6a6a6" stroke="#a6a6a6" stroke-width="1.51"/><path d="M398,565L302,647L476,682Z" fill="#adadad" stroke="#adadad" stroke-width="1.51"/><path d="M311,-25L296,42L414,110Z" fill="#dedede" stroke="#dedede" stroke-width="1.51"/><path d="M307,1148L329,1334L440,1305Z" fill="#6f6f6f" stroke="#6f6f6f" stroke-width="1.51"/><path d="M320,550L398,565L399,418Z" fill="#b9b9b9" stroke="#b9b9b9" stroke-width="1.51"/><path d="M302,647L331,840L407,818Z" fill="#a3a3a3" stroke="#a3a3a3" stroke-width="1.51"/><path d="M292,996L307,1148L443,1108Z" fill="#838383" stroke="#838383" stroke-width="1.51"/><path d="M332,411L320,550L399,418Z" fill="#bfbfbf" stroke="#bfbfbf" stroke-width="1.51"/><path d="M296,42L288,206L414,110Z" fill="#dadada" stroke="#dadada" stroke-width="1.51"/><path d="M320,550L302,647L398,565Z" fill="#b4b4b4" stroke="#b4b4b4" stroke-width="1.51"/><path d="M156,639L181,821L302,647Z" fill="#adadad" stroke="#adadad" stroke-width="1.51"/><path d="M292,996L167,1038L307,1148Z" fill="#898989" stroke="#898989" stroke-width="1.51"/><path d="M129,1135L92,1252L307,1148Z" fill="#7d7d7d" stroke="#7d7d7d" stroke-width="1.51"/><path d="M236,-224L183,-42L311,-25Z" fill="#e9e9e9" stroke="#e9e9e9" stroke-width="1.51"/><path d="M136,404L99,510L320,550Z" fill="#c2c2c2" stroke="#c2c2c2" stroke-width="1.51"/><path d="M307,1148L92,1252L329,1334Z" fill="#757575" stroke="#757575" stroke-width="1.51"/><path d="M92,1252L-3,1340L329,1334Z" fill="#737373" stroke="#737373" stroke-width="1.51"/><path d="M302,647L181,821L331,840Z" fill="#a6a6a6" stroke="#a6a6a6" stroke-width="1.51"/><path d="M181,821L292,996L331,840Z" fill="#9b9b9b" stroke="#9b9b9b" stroke-width="1.51"/><path d="M136,404L320,550L332,411Z" fill="#c3c3c3" stroke="#c3c3c3" stroke-width="1.51"/><path d="M288,206L136,404L332,411Z" fill="#cecece" stroke="#cecece" stroke-width="1.51"/><path d="M108,189L288,206L296,42Z" fill="#dddddd" stroke="#dddddd" stroke-width="1.51"/><path d="M108,50L108,189L296,42Z" fill="#e2e2e2" stroke="#e2e2e2" stroke-width="1.51"/><path d="M156,639L302,647L320,550Z" fill="#b5b5b5" stroke="#b5b5b5" stroke-width="1.51"/><path d="M99,510L156,639L320,550Z" fill="#bbbbbb" stroke="#bbbbbb" stroke-width="1.51"/><path d="M108,189L136,404L288,206Z" fill="#d6d6d6" stroke="#d6d6d6" stroke-width="1.51"/><path d="M181,821L167,1038L292,996Z" fill="#989898" stroke="#989898" stroke-width="1.51"/><path d="M167,1038L129,1135L307,1148Z" fill="#858585" stroke="#858585" stroke-width="1.51"/><path d="M183,-42L296,42L311,-25Z" fill="#e4e4e4" stroke="#e4e4e4" stroke-width="1.51"/><path d="M183,-42L108,50L296,42Z" fill="#e5e5e5" stroke="#e5e5e5" stroke-width="1.51"/><path d="M145,-229L183,-42L236,-224Z" fill="#eeeeee" stroke="#eeeeee" stroke-width="1.51"/><path d="M108,189L35,371L136,404Z" fill="#d6d6d6" stroke="#d6d6d6" stroke-width="1.51"/><path d="M-56,665L-5,827L156,639Z" fill="#b3b3b3" stroke="#b3b3b3" stroke-width="1.51"/><path d="M-5,827L-26,1035L167,1038Z" fill="#9c9c9c" stroke="#9c9c9c" stroke-width="1.51"/><path d="M-5,827L167,1038L181,821Z" fill="#a0a0a0" stroke="#a0a0a0" stroke-width="1.51"/><path d="M156,639L-5,827L181,821Z" fill="#acacac" stroke="#acacac" stroke-width="1.51"/><path d="M145,-229L-64,-94L183,-42Z" fill="#f0f0f0" stroke="#f0f0f0" stroke-width="1.51"/><path d="M-64,-94L108,50L183,-42Z" fill="#ececec" stroke="#ececec" stroke-width="1.51"/><path d="M30,196L35,371L108,189Z" fill="#dcdcdc" stroke="#dcdcdc" stroke-width="1.51"/><path d="M-33,-235L-64,-94L145,-229Z" fill="#f5f5f5" stroke="#f5f5f5" stroke-width="1.51"/><path d="M-20,1089L129,1135L167,1038Z" fill="#8b8b8b" stroke="#8b8b8b" stroke-width="1.51"/><path d="M-26,1035L-20,1089L167,1038Z" fill="#919191" stroke="#919191" stroke-width="1.51"/><path d="M99,510L-18,554L156,639Z" fill="#bfbfbf" stroke="#bfbfbf" stroke-width="1.51"/><path d="M-18,554L-56,665L156,639Z" fill="#bcbcbc" stroke="#bcbcbc" stroke-width="1.51"/><path d="M108,50L30,196L108,189Z" fill="#e2e2e2" stroke="#e2e2e2" stroke-width="1.51"/><path d="M-32,127L30,196L108,50Z" fill="#e5e5e5" stroke="#e5e5e5" stroke-width="1.51"/><path d="M35,371L99,510L136,404Z" fill="#cccccc" stroke="#cccccc" stroke-width="1.51"/><path d="M-20,1089L92,1252L129,1135Z" fill="#838383" stroke="#838383" stroke-width="1.51"/><path d="M35,371L-18,554L99,510Z" fill="#c8c8c8" stroke="#c8c8c8" stroke-width="1.51"/><path d="M-64,-94L-32,127L108,50Z" fill="#ebebeb" stroke="#ebebeb" stroke-width="1.51"/><path d="M-20,1089L-115,1277L92,1252Z" fill="#808080" stroke="#808080" stroke-width="1.51"/><path d="M-115,1277L-3,1340L92,1252Z" fill="#797979" stroke="#797979" stroke-width="1.51"/><path d="M-116,984L-26,1035L-5,827Z" fill="#a0a0a0" stroke="#a0a0a0" stroke-width="1.51"/><path d="M-128,563L-18,554L35,371Z" fill="#c9c9c9" stroke="#c9c9c9" stroke-width="1.51"/><path d="M-207,360L-128,563L35,371Z" fill="#d0d0d0" stroke="#d0d0d0" stroke-width="1.51"/><path d="M30,196L-124,190L35,371Z" fill="#dedede" stroke="#dedede" stroke-width="1.51"/><path d="M-124,190L-207,360L35,371Z" fill="#dcdcdc" stroke="#dcdcdc" stroke-width="1.51"/><path d="M-64,-94L-156,121L-32,127Z" fill="#ececec" stroke="#ececec" stroke-width="1.51"/><path d="M-56,665L-120,819L-5,827Z" fill="#b0b0b0" stroke="#b0b0b0" stroke-width="1.51"/><path d="M-32,127L-124,190L30,196Z" fill="#e4e4e4" stroke="#e4e4e4" stroke-width="1.51"/><path d="M-205,1180L-115,1277L-20,1089Z" fill="#858585" stroke="#858585" stroke-width="1.51"/><path d="M-128,563L-56,665L-18,554Z" fill="#c0c0c0" stroke="#c0c0c0" stroke-width="1.51"/><path d="M-120,819L-116,984L-5,827Z" fill="#a7a7a7" stroke="#a7a7a7" stroke-width="1.51"/><path d="M-216,-90L-156,121L-64,-94Z" fill="#f2f2f2" stroke="#f2f2f2" stroke-width="1.51"/><path d="M-215,-226L-64,-94L-33,-235Z" fill="#f8f8f8" stroke="#f8f8f8" stroke-width="1.51"/><path d="M-26,1035L-116,984L-20,1089Z" fill="#959595" stroke="#959595" stroke-width="1.51"/><path d="M-116,984L-205,1180L-20,1089Z" fill="#919191" stroke="#919191" stroke-width="1.51"/><path d="M-211,711L-120,819L-56,665Z" fill="#b5b5b5" stroke="#b5b5b5" stroke-width="1.51"/><path d="M-156,121L-124,190L-32,127Z" fill="#e7e7e7" stroke="#e7e7e7" stroke-width="1.51"/><path d="M-215,-226L-216,-90L-64,-94Z" fill="#f7f7f7" stroke="#f7f7f7" stroke-width="1.51"/><path d="M-128,563L-211,711L-56,665Z" fill="#bdbdbd" stroke="#bdbdbd" stroke-width="1.51"/><path d="M-120,819L-211,711L-116,984Z" fill="#acacac" stroke="#acacac" stroke-width="1.51"/><path d="M-211,711L-205,1180L-116,984Z" fill="#a2a2a2" stroke="#a2a2a2" stroke-width="1.51"/><path d="M-156,121L-207,360L-124,190Z" fill="#e3e3e3" stroke="#e3e3e3" stroke-width="1.51"/><path d="M-207,360L-211,711L-128,563Z" fill="#c7c7c7" stroke="#c7c7c7" stroke-width="1.51"/><path d="M-216,-90L-207,360L-156,121Z" fill="#ebebeb" stroke="#ebebeb" stroke-width="1.51"/><path d="M-216,-90L-211,711L-207,360Z" fill="#dedede" stroke="#dedede" stroke-width="1.51"/></svg>