<svg xmlns="http://www.w3.org/2000/svg" width="1920" height="1080"><path d="M-231,-139L-106,-165L56,-205Z" fill="#8e293c" stroke="#8e293c" stroke-width="1.51"/><path d="M56,-205L546,-192L779,-210Z" fill="#944751" stroke="#944751" stroke-width="1.51"/><path d="M813,1289L509,1304L996,1310Z" fill="#cabfc0" stroke="#cabfc0" stroke-width="1.51"/><path d="M56,-205L779,-210L1132,-231Z" fill="#965159" stroke="#965159" stroke-width="1.51"/><path d="M1149,1295L996,1310L1438,1295Z" fill="#d3d3d3" stroke="#d3d3d3" stroke-width="1.51"/><path d="M1438,1295L996,1310L1654,1316Z" fill="#dbdbdb" stroke="#dbdbdb" stroke-width="1.51"/><path d="M1132,-231L1235,-226L1818,-226Z" fill="#aa7075" stroke="#aa7075" stroke-width="1.51"/><path d="M2011,103L2017,231L2098,67Z" fill="#c7a5a7" stroke="#c7a5a7" stroke-width="1.51"/><path d="M2023,563L2128,658L2131,497Z" fill="#cacaca" stroke="#cacaca" stroke-width="1.51"/><path d="M2128,658L2006,723L2134,839Z" fill="#d4d4d4" stroke="#d4d4d4" stroke-width="1.51"/><path d="M2134,839L1990,928L2145,1012Z" fill="#e0e0e0" stroke="#e0e0e0" stroke-width="1.51"/><path d="M2145,1012L2016,1071L2150,1129Z" fill="#eaeaea" stroke="#eaeaea" stroke-width="1.51"/><path d="M2016,1071L1924,1234L2150,1129Z" fill="#ebebeb" stroke="#ebebeb" stroke-width="1.51"/><path d="M1818,-226L1928,-197L2155,-153Z" fill="#c2888c" stroke="#c2888c" stroke-width="1.51"/><path d="M1981,-25L2141,-3L2155,-153Z" fill="#c9989b" stroke="#c9989b" stroke-width="1.51"/><path d="M2098,67L2017,231L2165,260Z" fill="#caabad" stroke="#caabad" stroke-width="1.51"/><path d="M2141,-3L2098,67L2165,260Z" fill="#cba7a9" stroke="#cba7a9" stroke-width="1.51"/><path d="M2155,-153L2141,-3L2165,260Z" fill="#cba2a4" stroke="#cba2a4" stroke-width="1.51"/><path d="M1927,361L2131,497L2166,352Z" fill="#c8bcbc" stroke="#c8bcbc" stroke-width="1.51"/><path d="M2165,260L2017,231L2166,352Z" fill="#cab4b5" stroke="#cab4b5" stroke-width="1.51"/><path d="M2017,231L1927,361L2166,352Z" fill="#c7b3b5" stroke="#c7b3b5" stroke-width="1.51"/><path d="M2128,658L2134,839L2166,352Z" fill="#cfcfcf" stroke="#cfcfcf" stroke-width="1.51"/><path d="M2131,497L2128,658L2166,352Z" fill="#cac7c7" stroke="#cac7c7" stroke-width="1.51"/><path d="M2134,839L2145,1012L2166,352Z" fill="#d6d6d6" stroke="#d6d6d6" stroke-width="1.51"/><path d="M1841,1259L1654,1316L2166,1265Z" fill="#eeeeee" stroke="#eeeeee" stroke-width="1.51"/><path d="M1924,1234L1841,1259L2166,1265Z" fill="#f0f0f0" stroke="#f0f0f0" stroke-width="1.51"/><path d="M2150,1129L1924,1234L2166,1265Z" fill="#f2f2f2" stroke="#f2f2f2" stroke-width="1.51"/><path d="M2166,352L2145,1012L2166,1265Z" fill="#e0e0e0" stroke="#e0e0e0" stroke-width="1.51"/><path d="M2145,1012L2150,1129L2166,1265Z" fill="#f0f0f0" stroke="#f0f0f0" stroke-width="1.51"/><path d="M2006,723L1995,823L2134,839Z" fill="#d6d6d6" stroke="#d6d6d6" stroke-width="1.51"/><path d="M1928,-197L1981,-25L2155,-153Z" fill="#c59093" stroke="#c59093" stroke-width="1.51"/><path d="M1927,361L2023,563L2131,497Z" fill="#c6c0c0" stroke="#c6c0c0" stroke-width="1.51"/><path d="M1990,928L2016,1071L2145,1012Z" fill="#e3e3e3" stroke="#e3e3e3" stroke-width="1.51"/><path d="M1995,823L1990,928L2134,839Z" fill="#dadada" stroke="#dadada" stroke-width="1.51"/><path d="M1981,-25L2098,67L2141,-3Z" fill="#c89da0" stroke="#c89da0" stroke-width="1.51"/><path d="M2023,563L2006,723L2128,658Z" fill="#cdcdcd" stroke="#cdcdcd" stroke-width="1.51"/><path d="M1235,-226L1420,-157L1818,-226Z" fill="#af7579" stroke="#af7579" stroke-width="1.51"/><path d="M1981,-25L2011,103L2098,67Z" fill="#c69ea0" stroke="#c69ea0" stroke-width="1.51"/><path d="M1928,-197L1880,-47L1981,-25Z" fill="#c18f92" stroke="#c18f92" stroke-width="1.51"/><path d="M1990,928L1872,1077L2016,1071Z" fill="#e1e1e1" stroke="#e1e1e1" stroke-width="1.51"/><path d="M1872,1077L1924,1234L2016,1071Z" fill="#e7e7e7" stroke="#e7e7e7" stroke-width="1.51"/><path d="M2011,103L1795,113L2017,231Z" fill="#c3a3a4" stroke="#c3a3a4" stroke-width="1.51"/><path d="M1795,113L1779,214L2017,231Z" fill="#c0a2a4" stroke="#c0a2a4" stroke-width="1.51"/><path d="M1927,361L1815,554L2023,563Z" fill="#c1bdbd" stroke="#c1bdbd" stroke-width="1.51"/><path d="M1879,723L2006,723L2023,563Z" fill="#cbcbcb" stroke="#cbcbcb" stroke-width="1.51"/><path d="M1815,554L1879,723L2023,563Z" fill="#c5c5c5" stroke="#c5c5c5" stroke-width="1.51"/><path d="M1779,214L1856,358L1927,361Z" fill="#c0acad" stroke="#c0acad" stroke-width="1.51"/><path d="M1829,1010L1872,1077L1990,928Z" fill="#dddddd" stroke="#dddddd" stroke-width="1.51"/><path d="M1879,723L1995,823L2006,723Z" fill="#d0d0d0" stroke="#d0d0d0" stroke-width="1.51"/><path d="M1981,-25L1880,-47L2011,103Z" fill="#c3989a" stroke="#c3989a" stroke-width="1.51"/><path d="M1779,214L1927,361L2017,231Z" fill="#c2aaac" stroke="#c2aaac" stroke-width="1.51"/><path d="M1880,-47L1795,113L2011,103Z" fill="#c1999b" stroke="#c1999b" stroke-width="1.51"/><path d="M1837,881L1990,928L1995,823Z" fill="#d7d7d7" stroke="#d7d7d7" stroke-width="1.51"/><path d="M1856,358L1815,554L1927,361Z" fill="#c0b5b6" stroke="#c0b5b6" stroke-width="1.51"/><path d="M1879,723L1837,881L1995,823Z" fill="#d1d1d1" stroke="#d1d1d1" stroke-width="1.51"/><path d="M1837,881L1829,1010L1990,928Z" fill="#d8d8d8" stroke="#d8d8d8" stroke-width="1.51"/><path d="M1420,-157L1537,-135L1818,-226Z" fill="#b37b7f" stroke="#b37b7f" stroke-width="1.51"/><path d="M1872,1077L1841,1259L1924,1234Z" fill="#e8e8e8" stroke="#e8e8e8" stroke-width="1.51"/><path d="M1818,-226L1880,-47L1928,-197Z" fill="#be878b" stroke="#be878b" stroke-width="1.51"/><path d="M1818,-226L1732,-141L1880,-47Z" fill="#bc868a" stroke="#bc868a" stroke-width="1.51"/><path d="M1732,356L1815,554L1856,358Z" fill="#bdb3b3" stroke="#bdb3b3" stroke-width="1.51"/><path d="M1779,214L1732,356L1856,358Z" fill="#bda9aa" stroke="#bda9aa" stroke-width="1.51"/><path d="M1690,1129L1841,1259L1872,1077Z" fill="#e2e2e2" stroke="#e2e2e2" stroke-width="1.51"/><path d="M1815,554L1694,641L1879,723Z" fill="#c2c2c2" stroke="#c2c2c2" stroke-width="1.51"/><path d="M1712,843L1837,881L1879,723Z" fill="#cecece" stroke="#cecece" stroke-width="1.51"/><path d="M1725,10L1795,113L1880,-47Z" fill="#bd9395" stroke="#bd9395" stroke-width="1.51"/><path d="M1732,-141L1725,10L1880,-47Z" fill="#bb8b8e" stroke="#bb8b8e" stroke-width="1.51"/><path d="M1694,641L1712,843L1879,723Z" fill="#c7c7c7" stroke="#c7c7c7" stroke-width="1.51"/><path d="M1732,356L1702,540L1815,554Z" fill="#bbb5b6" stroke="#bbb5b6" stroke-width="1.51"/><path d="M1829,1010L1690,1129L1872,1077Z" fill="#dddddd" stroke="#dddddd" stroke-width="1.51"/><path d="M1537,-135L1732,-141L1818,-226Z" fill="#b78084" stroke="#b78084" stroke-width="1.51"/><path d="M1712,843L1660,1024L1829,1010Z" fill="#d3d3d3" stroke="#d3d3d3" stroke-width="1.51"/><path d="M1712,843L1829,1010L1837,881Z" fill="#d3d3d3" stroke="#d3d3d3" stroke-width="1.51"/><path d="M1690,1129L1654,1316L1841,1259Z" fill="#e5e5e5" stroke="#e5e5e5" stroke-width="1.51"/><path d="M1660,1024L1690,1129L1829,1010Z" fill="#d9d9d9" stroke="#d9d9d9" stroke-width="1.51"/><path d="M1702,540L1694,641L1815,554Z" fill="#bcbcbc" stroke="#bcbcbc" stroke-width="1.51"/><path d="M1651,150L1684,223L1779,214Z" fill="#b99d9e" stroke="#b99d9e" stroke-width="1.51"/><path d="M1684,223L1732,356L1779,214Z" fill="#bba4a5" stroke="#bba4a5" stroke-width="1.51"/><path d="M1651,150L1779,214L1795,113Z" fill="#bb9b9d" stroke="#bb9b9d" stroke-width="1.51"/><path d="M1725,10L1651,150L1795,113Z" fill="#ba9598" stroke="#ba9598" stroke-width="1.51"/><path d="M1535,1265L1654,1316L1690,1129Z" fill="#e1e1e1" stroke="#e1e1e1" stroke-width="1.51"/><path d="M1544,999L1660,1024L1712,843Z" fill="#cfcfcf" stroke="#cfcfcf" stroke-width="1.51"/><path d="M1694,641L1547,668L1712,843Z" fill="#c1c1c1" stroke="#c1c1c1" stroke-width="1.51"/><path d="M1547,668L1495,784L1712,843Z" fill="#c1c1c1" stroke="#c1c1c1" stroke-width="1.51"/><path d="M1529,413L1702,540L1732,356Z" fill="#b7aeae" stroke="#b7aeae" stroke-width="1.51"/><path d="M1684,223L1529,413L1732,356Z" fill="#b7a6a6" stroke="#b7a6a6" stroke-width="1.51"/><path d="M1538,-33L1725,10L1732,-141Z" fill="#b7888b" stroke="#b7888b" stroke-width="1.51"/><path d="M1537,-135L1538,-33L1732,-141Z" fill="#b48185" stroke="#b48185" stroke-width="1.51"/><path d="M1529,413L1542,542L1702,540Z" fill="#b4b1b1" stroke="#b4b1b1" stroke-width="1.51"/><path d="M1538,-33L1651,150L1725,10Z" fill="#b78e90" stroke="#b78e90" stroke-width="1.51"/><path d="M1500,243L1529,413L1684,223Z" fill="#b49fa0" stroke="#b49fa0" stroke-width="1.51"/><path d="M1542,542L1694,641L1702,540Z" fill="#b8b8b8" stroke="#b8b8b8" stroke-width="1.51"/><path d="M1495,784L1544,999L1712,843Z" fill="#c8c8c8" stroke="#c8c8c8" stroke-width="1.51"/><path d="M1538,-33L1490,74L1651,150Z" fill="#b38d8f" stroke="#b38d8f" stroke-width="1.51"/><path d="M1516,1146L1535,1265L1690,1129Z" fill="#dbdbdb" stroke="#dbdbdb" stroke-width="1.51"/><path d="M1542,542L1547,668L1694,641Z" fill="#b8b8b8" stroke="#b8b8b8" stroke-width="1.51"/><path d="M1535,1265L1438,1295L1654,1316Z" fill="#e1e1e1" stroke="#e1e1e1" stroke-width="1.51"/><path d="M1660,1024L1516,1146L1690,1129Z" fill="#d8d8d8" stroke="#d8d8d8" stroke-width="1.51"/><path d="M1651,150L1500,243L1684,223Z" fill="#b69a9b" stroke="#b69a9b" stroke-width="1.51"/><path d="M1544,999L1516,1146L1660,1024Z" fill="#d3d3d3" stroke="#d3d3d3" stroke-width="1.51"/><path d="M1490,74L1500,243L1651,150Z" fill="#b39495" stroke="#b39495" stroke-width="1.51"/><path d="M1401,854L1444,959L1495,784Z" fill="#c2c2c2" stroke="#c2c2c2" stroke-width="1.51"/><path d="M1490,74L1391,90L1500,243Z" fill="#af8e91" stroke="#af8e91" stroke-width="1.51"/><path d="M1444,959L1367,1145L1516,1146Z" fill="#cfcfcf" stroke="#cfcfcf" stroke-width="1.51"/><path d="M1500,243L1419,291L1529,413Z" fill="#b19e9f" stroke="#b19e9f" stroke-width="1.51"/><path d="M1419,291L1403,381L1529,413Z" fill="#afa1a1" stroke="#afa1a1" stroke-width="1.51"/><path d="M1516,1146L1438,1295L1535,1265Z" fill="#dbdbdb" stroke="#dbdbdb" stroke-width="1.51"/><path d="M1537,-135L1420,-157L1538,-33Z" fill="#b07d81" stroke="#b07d81" stroke-width="1.51"/><path d="M1529,413L1416,532L1542,542Z" fill="#b0acad" stroke="#b0acad" stroke-width="1.51"/><path d="M1416,532L1423,645L1542,542Z" fill="#b0b0b0" stroke="#b0b0b0" stroke-width="1.51"/><path d="M1444,959L1516,1146L1544,999Z" fill="#cfcfcf" stroke="#cfcfcf" stroke-width="1.51"/><path d="M1495,784L1444,959L1544,999Z" fill="#c7c7c7" stroke="#c7c7c7" stroke-width="1.51"/><path d="M1542,542L1423,645L1547,668Z" fill="#b5b5b5" stroke="#b5b5b5" stroke-width="1.51"/><path d="M1423,645L1495,784L1547,668Z" fill="#b9b9b9" stroke="#b9b9b9" stroke-width="1.51"/><path d="M1420,-157L1374,-24L1538,-33Z" fill="#ae7e81" stroke="#ae7e81" stroke-width="1.51"/><path d="M1374,-24L1490,74L1538,-33Z" fill="#af8588" stroke="#af8588" stroke-width="1.51"/><path d="M1403,381L1416,532L1529,413Z" fill="#afa7a7" stroke="#afa7a7" stroke-width="1.51"/><path d="M1367,1145L1438,1295L1516,1146Z" fill="#d7d7d7" stroke="#d7d7d7" stroke-width="1.51"/><path d="M400,1278L-188,1290L509,1304Z" fill="#caa4a6" stroke="#caa4a6" stroke-width="1.51"/><path d="M1374,-24L1391,90L1490,74Z" fill="#ae8689" stroke="#ae8689" stroke-width="1.51"/><path d="M1423,645L1401,854L1495,784Z" fill="#bbbbbb" stroke="#bbbbbb" stroke-width="1.51"/><path d="M1391,90L1419,291L1500,243Z" fill="#af9495" stroke="#af9495" stroke-width="1.51"/><path d="M56,-205L264,-173L546,-192Z" fill="#933f4b" stroke="#933f4b" stroke-width="1.51"/><path d="M1259,965L1238,1071L1367,1145Z" fill="#c8c8c8" stroke="#c8c8c8" stroke-width="1.51"/><path d="M1391,90L1257,259L1419,291Z" fill="#ab9192" stroke="#ab9192" stroke-width="1.51"/><path d="M1216,714L1401,854L1423,645Z" fill="#b6b6b6" stroke="#b6b6b6" stroke-width="1.51"/><path d="M1257,1224L1149,1295L1438,1295Z" fill="#d5d5d5" stroke="#d5d5d5" stroke-width="1.51"/><path d="M1367,1145L1257,1224L1438,1295Z" fill="#d5d5d5" stroke="#d5d5d5" stroke-width="1.51"/><path d="M1401,854L1259,965L1444,959Z" fill="#c2c2c2" stroke="#c2c2c2" stroke-width="1.51"/><path d="M1259,965L1367,1145L1444,959Z" fill="#c8c8c8" stroke="#c8c8c8" stroke-width="1.51"/><path d="M1403,381L1278,543L1416,532Z" fill="#aba7a7" stroke="#aba7a7" stroke-width="1.51"/><path d="M1416,532L1278,543L1423,645Z" fill="#adadad" stroke="#adadad" stroke-width="1.51"/><path d="M1216,714L1221,860L1401,854Z" fill="#b8b8b8" stroke="#b8b8b8" stroke-width="1.51"/><path d="M1242,371L1278,543L1403,381Z" fill="#a9a0a0" stroke="#a9a0a0" stroke-width="1.51"/><path d="M1257,259L1403,381L1419,291Z" fill="#ac9999" stroke="#ac9999" stroke-width="1.51"/><path d="M1235,-226L1374,-24L1420,-157Z" fill="#a97579" stroke="#a97579" stroke-width="1.51"/><path d="M1278,543L1216,714L1423,645Z" fill="#aeaeae" stroke="#aeaeae" stroke-width="1.51"/><path d="M1257,259L1242,371L1403,381Z" fill="#aa999a" stroke="#aa999a" stroke-width="1.51"/><path d="M1235,-226L1280,10L1374,-24Z" fill="#a8777b" stroke="#a8777b" stroke-width="1.51"/><path d="M1215,93L1257,259L1391,90Z" fill="#a9898b" stroke="#a9898b" stroke-width="1.51"/><path d="M1374,-24L1280,10L1391,90Z" fill="#aa8284" stroke="#aa8284" stroke-width="1.51"/><path d="M1221,860L1259,965L1401,854Z" fill="#bdbdbd" stroke="#bdbdbd" stroke-width="1.51"/><path d="M1280,10L1215,93L1391,90Z" fill="#a88385" stroke="#a88385" stroke-width="1.51"/><path d="M99,1249L-188,1290L400,1278Z" fill="#c99b9e" stroke="#c99b9e" stroke-width="1.51"/><path d="M1238,1071L1257,1224L1367,1145Z" fill="#cdcdcd" stroke="#cdcdcd" stroke-width="1.51"/><path d="M1238,1071L1092,1092L1257,1224Z" fill="#c8c8c8" stroke="#c8c8c8" stroke-width="1.51"/><path d="M1215,93L1134,109L1257,259Z" fill="#a68688" stroke="#a68688" stroke-width="1.51"/><path d="M1129,574L1216,714L1278,543Z" fill="#a8a8a8" stroke="#a8a8a8" stroke-width="1.51"/><path d="M1242,371L1120,414L1278,543Z" fill="#a69d9e" stroke="#a69d9e" stroke-width="1.51"/><path d="M1120,414L1129,574L1278,543Z" fill="#a3a1a1" stroke="#a3a1a1" stroke-width="1.51"/><path d="M1235,-226L1123,-77L1280,10Z" fill="#a47377" stroke="#a47377" stroke-width="1.51"/><path d="M1123,-77L1215,93L1280,10Z" fill="#a57b7e" stroke="#a57b7e" stroke-width="1.51"/><path d="M1132,-231L1123,-77L1235,-226Z" fill="#a26b70" stroke="#a26b70" stroke-width="1.51"/><path d="M1092,1092L1149,1295L1257,1224Z" fill="#cccccc" stroke="#cccccc" stroke-width="1.51"/><path d="M1134,109L1109,285L1257,259Z" fill="#a48a8b" stroke="#a48a8b" stroke-width="1.51"/><path d="M1109,285L1242,371L1257,259Z" fill="#a69293" stroke="#a69293" stroke-width="1.51"/><path d="M1151,935L1238,1071L1259,965Z" fill="#c0c0c0" stroke="#c0c0c0" stroke-width="1.51"/><path d="M1221,860L1151,935L1259,965Z" fill="#bcbcbc" stroke="#bcbcbc" stroke-width="1.51"/><path d="M1123,-77L1134,109L1215,93Z" fill="#a37c7e" stroke="#a37c7e" stroke-width="1.51"/><path d="M1129,574L1091,652L1216,714Z" fill="#a8a8a8" stroke="#a8a8a8" stroke-width="1.51"/><path d="M1216,714L1059,823L1221,860Z" fill="#b2b2b2" stroke="#b2b2b2" stroke-width="1.51"/><path d="M1151,935L1092,1092L1238,1071Z" fill="#c1c1c1" stroke="#c1c1c1" stroke-width="1.51"/><path d="M1109,285L1120,414L1242,371Z" fill="#a39495" stroke="#a39495" stroke-width="1.51"/><path d="M1091,652L1059,823L1216,714Z" fill="#adadad" stroke="#adadad" stroke-width="1.51"/><path d="M1059,823L1151,935L1221,860Z" fill="#b6b6b6" stroke="#b6b6b6" stroke-width="1.51"/><path d="M779,-210L985,-158L1132,-231Z" fill="#996267" stroke="#996267" stroke-width="1.51"/><path d="M680,1271L509,1304L813,1289Z" fill="#cababb" stroke="#cababb" stroke-width="1.51"/><path d="M927,1021L989,1093L1092,1092Z" fill="#bdbdbd" stroke="#bdbdbd" stroke-width="1.51"/><path d="M989,1093L996,1310L1092,1092Z" fill="#c4c4c4" stroke="#c4c4c4" stroke-width="1.51"/><path d="M1120,414L984,559L1129,574Z" fill="#9f9d9d" stroke="#9f9d9d" stroke-width="1.51"/><path d="M985,-158L1123,-77L1132,-231Z" fill="#9e6a6e" stroke="#9e6a6e" stroke-width="1.51"/><path d="M985,256L1109,285L1134,109Z" fill="#a08688" stroke="#a08688" stroke-width="1.51"/><path d="M978,130L985,256L1134,109Z" fill="#9f8183" stroke="#9f8183" stroke-width="1.51"/><path d="M1123,-77L1005,-69L1134,109Z" fill="#a07578" stroke="#a07578" stroke-width="1.51"/><path d="M1005,-69L978,130L1134,109Z" fill="#9e797b" stroke="#9e797b" stroke-width="1.51"/><path d="M1092,1092L996,1310L1149,1295Z" fill="#cacaca" stroke="#cacaca" stroke-width="1.51"/><path d="M927,1021L1092,1092L1151,935Z" fill="#bcbcbc" stroke="#bcbcbc" stroke-width="1.51"/><path d="M1002,854L927,1021L1151,935Z" fill="#b6b6b6" stroke="#b6b6b6" stroke-width="1.51"/><path d="M1059,823L1002,854L1151,935Z" fill="#b3b3b3" stroke="#b3b3b3" stroke-width="1.51"/><path d="M1109,285L976,367L1120,414Z" fill="#a09191" stroke="#a09191" stroke-width="1.51"/><path d="M985,-158L1005,-69L1123,-77Z" fill="#9d6c70" stroke="#9d6c70" stroke-width="1.51"/><path d="M976,367L984,559L1120,414Z" fill="#9e9696" stroke="#9e9696" stroke-width="1.51"/><path d="M984,559L1091,652L1129,574Z" fill="#a2a2a2" stroke="#a2a2a2" stroke-width="1.51"/><path d="M933,642L1059,823L1091,652Z" fill="#a7a7a7" stroke="#a7a7a7" stroke-width="1.51"/><path d="M985,256L976,367L1109,285Z" fill="#9e8b8c" stroke="#9e8b8c" stroke-width="1.51"/><path d="M984,559L933,642L1091,652Z" fill="#a1a1a1" stroke="#a1a1a1" stroke-width="1.51"/><path d="M933,642L1002,854L1059,823Z" fill="#aaaaaa" stroke="#aaaaaa" stroke-width="1.51"/><path d="M835,-60L797,98L978,130Z" fill="#9b7174" stroke="#9b7174" stroke-width="1.51"/><path d="M976,367L863,394L984,559Z" fill="#9c9292" stroke="#9c9292" stroke-width="1.51"/><path d="M793,1100L813,1289L989,1093Z" fill="#c1bcbc" stroke="#c1bcbc" stroke-width="1.51"/><path d="M989,1093L813,1289L996,1310Z" fill="#c5c4c4" stroke="#c5c4c4" stroke-width="1.51"/><path d="M803,713L771,879L1002,854Z" fill="#aca6a6" stroke="#aca6a6" stroke-width="1.51"/><path d="M821,951L927,1021L1002,854Z" fill="#b3b1b1" stroke="#b3b1b1" stroke-width="1.51"/><path d="M933,642L803,713L1002,854Z" fill="#a7a4a5" stroke="#a7a4a5" stroke-width="1.51"/><path d="M985,-158L835,-60L1005,-69Z" fill="#9a696d" stroke="#9a696d" stroke-width="1.51"/><path d="M835,-60L978,130L1005,-69Z" fill="#9b7073" stroke="#9b7073" stroke-width="1.51"/><path d="M771,879L821,951L1002,854Z" fill="#b1acac" stroke="#b1acac" stroke-width="1.51"/><path d="M806,289L863,394L976,367Z" fill="#9c898a" stroke="#9c898a" stroke-width="1.51"/><path d="M863,394L819,589L984,559Z" fill="#9c9695" stroke="#9c9695" stroke-width="1.51"/><path d="M978,130L806,289L985,256Z" fill="#9c8182" stroke="#9c8182" stroke-width="1.51"/><path d="M806,289L976,367L985,256Z" fill="#9c8788" stroke="#9c8788" stroke-width="1.51"/><path d="M797,98L806,289L978,130Z" fill="#9c7a7c" stroke="#9c7a7c" stroke-width="1.51"/><path d="M927,1021L793,1100L989,1093Z" fill="#bcb8b9" stroke="#bcb8b9" stroke-width="1.51"/><path d="M779,-210L835,-60L985,-158Z" fill="#996266" stroke="#996266" stroke-width="1.51"/><path d="M819,589L933,642L984,559Z" fill="#9f9c9c" stroke="#9f9c9c" stroke-width="1.51"/><path d="M819,589L803,713L933,642Z" fill="#a29c9c" stroke="#a29c9c" stroke-width="1.51"/><path d="M821,951L793,1100L927,1021Z" fill="#b9b3b3" stroke="#b9b3b3" stroke-width="1.51"/><path d="M702,813L771,879L803,713Z" fill="#aca1a1" stroke="#aca1a1" stroke-width="1.51"/><path d="M793,1100L676,1134L813,1289Z" fill="#c3b7b8" stroke="#c3b7b8" stroke-width="1.51"/><path d="M707,420L819,589L863,394Z" fill="#9c8e8e" stroke="#9c8e8e" stroke-width="1.51"/><path d="M806,289L707,420L863,394Z" fill="#9c8686" stroke="#9c8686" stroke-width="1.51"/><path d="M797,98L644,234L806,289Z" fill="#9b7779" stroke="#9b7779" stroke-width="1.51"/><path d="M676,1134L680,1271L813,1289Z" fill="#c6b9ba" stroke="#c6b9ba" stroke-width="1.51"/><path d="M707,420L663,530L819,589Z" fill="#9c8e8e" stroke="#9c8e8e" stroke-width="1.51"/><path d="M670,692L803,713L819,589Z" fill="#a39999" stroke="#a39999" stroke-width="1.51"/><path d="M642,1012L793,1100L821,951Z" fill="#b9adae" stroke="#b9adae" stroke-width="1.51"/><path d="M703,-68L797,98L835,-60Z" fill="#9a686c" stroke="#9a686c" stroke-width="1.51"/><path d="M779,-210L703,-68L835,-60Z" fill="#995f64" stroke="#995f64" stroke-width="1.51"/><path d="M546,-192L674,-156L779,-210Z" fill="#97545b" stroke="#97545b" stroke-width="1.51"/><path d="M674,-156L703,-68L779,-210Z" fill="#985a60" stroke="#985a60" stroke-width="1.51"/><path d="M703,-68L643,64L797,98Z" fill="#9a686b" stroke="#9a686b" stroke-width="1.51"/><path d="M771,879L642,1012L821,951Z" fill="#b5a9a9" stroke="#b5a9a9" stroke-width="1.51"/><path d="M663,530L670,692L819,589Z" fill="#a09393" stroke="#a09393" stroke-width="1.51"/><path d="M643,64L644,234L797,98Z" fill="#9b6f71" stroke="#9b6f71" stroke-width="1.51"/><path d="M670,692L702,813L803,713Z" fill="#a89b9c" stroke="#a89b9c" stroke-width="1.51"/><path d="M644,234L707,420L806,289Z" fill="#9c7e7f" stroke="#9c7e7f" stroke-width="1.51"/><path d="M642,1012L676,1134L793,1100Z" fill="#bdafaf" stroke="#bdafaf" stroke-width="1.51"/><path d="M702,813L642,1012L771,879Z" fill="#b2a4a4" stroke="#b2a4a4" stroke-width="1.51"/><path d="M663,530L565,546L670,692Z" fill="#9f8d8e" stroke="#9f8d8e" stroke-width="1.51"/><path d="M670,692L534,800L702,813Z" fill="#aa9999" stroke="#aa9999" stroke-width="1.51"/><path d="M534,800L642,1012L702,813Z" fill="#b19e9f" stroke="#b19e9f" stroke-width="1.51"/><path d="M505,-33L643,64L703,-68Z" fill="#995f64" stroke="#995f64" stroke-width="1.51"/><path d="M565,546L663,530L707,420Z" fill="#9c8989" stroke="#9c8989" stroke-width="1.51"/><path d="M481,422L565,546L707,420Z" fill="#9c8384" stroke="#9c8384" stroke-width="1.51"/><path d="M554,294L481,422L707,420Z" fill="#9c7c7e" stroke="#9c7c7e" stroke-width="1.51"/><path d="M644,234L554,294L707,420Z" fill="#9c7a7c" stroke="#9c7a7c" stroke-width="1.51"/><path d="M676,1134L508,1155L680,1271Z" fill="#c4b1b1" stroke="#c4b1b1" stroke-width="1.51"/><path d="M674,-156L505,-33L703,-68Z" fill="#985a60" stroke="#985a60" stroke-width="1.51"/><path d="M534,800L491,989L642,1012Z" fill="#b49e9f" stroke="#b49e9f" stroke-width="1.51"/><path d="M643,64L503,81L644,234Z" fill="#9a696d" stroke="#9a696d" stroke-width="1.51"/><path d="M504,730L534,800L670,692Z" fill="#a89394" stroke="#a89394" stroke-width="1.51"/><path d="M546,-192L505,-33L674,-156Z" fill="#97545b" stroke="#97545b" stroke-width="1.51"/><path d="M642,1012L508,1155L676,1134Z" fill="#beabac" stroke="#beabac" stroke-width="1.51"/><path d="M508,1155L509,1304L680,1271Z" fill="#c7b2b2" stroke="#c7b2b2" stroke-width="1.51"/><path d="M565,546L504,730L670,692Z" fill="#a38f90" stroke="#a38f90" stroke-width="1.51"/><path d="M231,1237L99,1249L400,1278Z" fill="#c8a1a4" stroke="#c8a1a4" stroke-width="1.51"/><path d="M491,989L508,1155L642,1012Z" fill="#bba5a6" stroke="#bba5a6" stroke-width="1.51"/><path d="M505,-33L503,81L643,64Z" fill="#996065" stroke="#996065" stroke-width="1.51"/><path d="M503,81L554,294L644,234Z" fill="#9b6e71" stroke="#9b6e71" stroke-width="1.51"/><path d="M347,570L367,698L504,730Z" fill="#a38788" stroke="#a38788" stroke-width="1.51"/><path d="M371,862L491,989L534,800Z" fill="#b19798" stroke="#b19798" stroke-width="1.51"/><path d="M264,-173L332,-140L546,-192Z" fill="#944650" stroke="#944650" stroke-width="1.51"/><path d="M421,392L481,422L554,294Z" fill="#9c7778" stroke="#9c7778" stroke-width="1.51"/><path d="M503,81L403,252L554,294Z" fill="#9b6a6d" stroke="#9b6a6d" stroke-width="1.51"/><path d="M347,570L504,730L565,546Z" fill="#a08788" stroke="#a08788" stroke-width="1.51"/><path d="M481,422L347,570L565,546Z" fill="#9c8182" stroke="#9c8182" stroke-width="1.51"/><path d="M422,78L403,252L503,81Z" fill="#996266" stroke="#996266" stroke-width="1.51"/><path d="M491,989L393,1075L508,1155Z" fill="#bda2a3" stroke="#bda2a3" stroke-width="1.51"/><path d="M332,-140L505,-33L546,-192Z" fill="#964e56" stroke="#964e56" stroke-width="1.51"/><path d="M403,252L421,392L554,294Z" fill="#9b7173" stroke="#9b7173" stroke-width="1.51"/><path d="M508,1155L400,1278L509,1304Z" fill="#c7adae" stroke="#c7adae" stroke-width="1.51"/><path d="M332,-140L359,-33L505,-33Z" fill="#964f57" stroke="#964f57" stroke-width="1.51"/><path d="M504,730L371,862L534,800Z" fill="#ab9293" stroke="#ab9293" stroke-width="1.51"/><path d="M371,862L374,987L491,989Z" fill="#b59899" stroke="#b59899" stroke-width="1.51"/><path d="M367,698L371,862L504,730Z" fill="#aa8d8f" stroke="#aa8d8f" stroke-width="1.51"/><path d="M422,78L503,81L505,-33Z" fill="#985c61" stroke="#985c61" stroke-width="1.51"/><path d="M359,-33L422,78L505,-33Z" fill="#97575d" stroke="#97575d" stroke-width="1.51"/><path d="M393,1075L400,1278L508,1155Z" fill="#c3a6a8" stroke="#c3a6a8" stroke-width="1.51"/><path d="M421,392L347,570L481,422Z" fill="#9c7a7c" stroke="#9c7a7c" stroke-width="1.51"/><path d="M374,987L393,1075L491,989Z" fill="#b99c9e" stroke="#b99c9e" stroke-width="1.51"/><path d="M367,698L282,786L371,862Z" fill="#aa8a8c" stroke="#aa8a8c" stroke-width="1.51"/><path d="M393,1075L230,1143L400,1278Z" fill="#c2a1a3" stroke="#c2a1a3" stroke-width="1.51"/><path d="M230,1143L231,1237L400,1278Z" fill="#c6a2a4" stroke="#c6a2a4" stroke-width="1.51"/><path d="M403,252L278,430L421,392Z" fill="#9b7073" stroke="#9b7073" stroke-width="1.51"/><path d="M278,430L347,570L421,392Z" fill="#9c7779" stroke="#9c7779" stroke-width="1.51"/><path d="M226,10L188,55L422,78Z" fill="#975359" stroke="#975359" stroke-width="1.51"/><path d="M200,220L403,252L422,78Z" fill="#9a6165" stroke="#9a6165" stroke-width="1.51"/><path d="M188,55L200,220L422,78Z" fill="#98585d" stroke="#98585d" stroke-width="1.51"/><path d="M359,-33L226,10L422,78Z" fill="#97535a" stroke="#97535a" stroke-width="1.51"/><path d="M200,220L278,430L403,252Z" fill="#9a676b" stroke="#9a676b" stroke-width="1.51"/><path d="M371,862L190,923L374,987Z" fill="#b39193" stroke="#b39193" stroke-width="1.51"/><path d="M374,987L230,1143L393,1075Z" fill="#bc9b9d" stroke="#bc9b9d" stroke-width="1.51"/><path d="M278,430L241,567L347,570Z" fill="#9c787a" stroke="#9c787a" stroke-width="1.51"/><path d="M347,570L231,650L367,698Z" fill="#a28183" stroke="#a28183" stroke-width="1.51"/><path d="M190,923L230,1143L374,987Z" fill="#b99497" stroke="#b99497" stroke-width="1.51"/><path d="M282,786L190,923L371,862Z" fill="#af8c8e" stroke="#af8c8e" stroke-width="1.51"/><path d="M231,650L282,786L367,698Z" fill="#a68486" stroke="#a68486" stroke-width="1.51"/><path d="M241,567L231,650L347,570Z" fill="#9f7c7f" stroke="#9f7c7f" stroke-width="1.51"/><path d="M332,-140L226,10L359,-33Z" fill="#954b54" stroke="#954b54" stroke-width="1.51"/><path d="M264,-173L226,10L332,-140Z" fill="#944650" stroke="#944650" stroke-width="1.51"/><path d="M190,923L78,1004L230,1143Z" fill="#b99092" stroke="#b99092" stroke-width="1.51"/><path d="M82,-57L226,10L264,-173Z" fill="#94434e" stroke="#94434e" stroke-width="1.51"/><path d="M96,392L241,567L278,430Z" fill="#9b6f73" stroke="#9b6f73" stroke-width="1.51"/><path d="M200,220L96,392L278,430Z" fill="#9a656a" stroke="#9a656a" stroke-width="1.51"/><path d="M86,873L190,923L282,786Z" fill="#af8789" stroke="#af8789" stroke-width="1.51"/><path d="M137,694L86,873L282,786Z" fill="#aa8285" stroke="#aa8285" stroke-width="1.51"/><path d="M231,650L137,694L282,786Z" fill="#a68083" stroke="#a68083" stroke-width="1.51"/><path d="M188,55L130,86L200,220Z" fill="#97535a" stroke="#97535a" stroke-width="1.51"/><path d="M78,1004L74,1109L230,1143Z" fill="#bd9194" stroke="#bd9194" stroke-width="1.51"/><path d="M96,392L39,535L241,567Z" fill="#9b6e72" stroke="#9b6e72" stroke-width="1.51"/><path d="M56,-205L82,-57L264,-173Z" fill="#913a47" stroke="#913a47" stroke-width="1.51"/><path d="M230,1143L99,1249L231,1237Z" fill="#c49c9e" stroke="#c49c9e" stroke-width="1.51"/><path d="M137,694L231,650L241,567Z" fill="#a27b7e" stroke="#a27b7e" stroke-width="1.51"/><path d="M39,535L137,694L241,567Z" fill="#9e7678" stroke="#9e7678" stroke-width="1.51"/><path d="M80,203L96,392L200,220Z" fill="#985c62" stroke="#985c62" stroke-width="1.51"/><path d="M74,1109L99,1249L230,1143Z" fill="#c29699" stroke="#c29699" stroke-width="1.51"/><path d="M82,-57L188,55L226,10Z" fill="#954951" stroke="#954951" stroke-width="1.51"/><path d="M-77,1222L-188,1290L99,1249Z" fill="#c79295" stroke="#c79295" stroke-width="1.51"/><path d="M82,-57L130,86L188,55Z" fill="#954952" stroke="#954952" stroke-width="1.51"/><path d="M130,86L80,203L200,220Z" fill="#97555c" stroke="#97555c" stroke-width="1.51"/><path d="M86,873L78,1004L190,923Z" fill="#b3888a" stroke="#b3888a" stroke-width="1.51"/><path d="M-17,561L-31,686L39,535Z" fill="#9e6e71" stroke="#9e6e71" stroke-width="1.51"/><path d="M80,203L-64,283L96,392Z" fill="#985a5f" stroke="#985a5f" stroke-width="1.51"/><path d="M-31,686L86,873L137,694Z" fill="#a87b7e" stroke="#a87b7e" stroke-width="1.51"/><path d="M39,535L-31,686L137,694Z" fill="#a17377" stroke="#a17377" stroke-width="1.51"/><path d="M-31,686L-78,819L86,873Z" fill="#aa797d" stroke="#aa797d" stroke-width="1.51"/><path d="M82,-57L-95,121L130,86Z" fill="#94464f" stroke="#94464f" stroke-width="1.51"/><path d="M-95,121L80,203L130,86Z" fill="#954d55" stroke="#954d55" stroke-width="1.51"/><path d="M56,-205L-57,-77L82,-57Z" fill="#913745" stroke="#913745" stroke-width="1.51"/><path d="M-57,-77L-95,121L82,-57Z" fill="#923e49" stroke="#923e49" stroke-width="1.51"/><path d="M-93,949L78,1004L86,873Z" fill="#b38386" stroke="#b38386" stroke-width="1.51"/><path d="M-78,441L39,535L96,392Z" fill="#9a656a" stroke="#9a656a" stroke-width="1.51"/><path d="M74,1109L-58,1131L99,1249Z" fill="#c19194" stroke="#c19194" stroke-width="1.51"/><path d="M-58,1131L-77,1222L99,1249Z" fill="#c39194" stroke="#c39194" stroke-width="1.51"/><path d="M-64,283L-78,441L96,392Z" fill="#985d63" stroke="#985d63" stroke-width="1.51"/><path d="M-58,1131L74,1109L78,1004Z" fill="#bc8c8f" stroke="#bc8c8f" stroke-width="1.51"/><path d="M-78,819L-93,949L86,873Z" fill="#b07d81" stroke="#b07d81" stroke-width="1.51"/><path d="M-93,949L-58,1131L78,1004Z" fill="#b8868a" stroke="#b8868a" stroke-width="1.51"/><path d="M-95,121L-64,283L80,203Z" fill="#964f57" stroke="#964f57" stroke-width="1.51"/><path d="M-78,441L-17,561L39,535Z" fill="#9a686c" stroke="#9a686c" stroke-width="1.51"/><path d="M-106,-165L-57,-77L56,-205Z" fill="#8f3040" stroke="#8f3040" stroke-width="1.51"/><path d="M-93,949L-151,1080L-58,1131Z" fill="#ba8387" stroke="#ba8387" stroke-width="1.51"/><path d="M-179,60L-95,121L-57,-77Z" fill="#923c48" stroke="#923c48" stroke-width="1.51"/><path d="M-169,535L-164,713L-31,686Z" fill="#a06b6f" stroke="#a06b6f" stroke-width="1.51"/><path d="M-164,713L-78,819L-31,686Z" fill="#a67276" stroke="#a67276" stroke-width="1.51"/><path d="M-169,535L-31,686L-17,561Z" fill="#9d6a6e" stroke="#9d6a6e" stroke-width="1.51"/><path d="M-78,441L-169,535L-17,561Z" fill="#996569" stroke="#996569" stroke-width="1.51"/><path d="M-152,816L-93,949L-78,819Z" fill="#ae787c" stroke="#ae787c" stroke-width="1.51"/><path d="M-164,713L-152,816L-78,819Z" fill="#a87276" stroke="#a87276" stroke-width="1.51"/><path d="M-95,121L-248,204L-64,283Z" fill="#954952" stroke="#954952" stroke-width="1.51"/><path d="M-239,377L-78,441L-64,283Z" fill="#97575d" stroke="#97575d" stroke-width="1.51"/><path d="M-151,1080L-77,1222L-58,1131Z" fill="#c0898d" stroke="#c0898d" stroke-width="1.51"/><path d="M-220,-1L-179,60L-57,-77Z" fill="#903644" stroke="#903644" stroke-width="1.51"/><path d="M-106,-165L-231,-139L-57,-77Z" fill="#8e2b3d" stroke="#8e2b3d" stroke-width="1.51"/><path d="M-231,-139L-220,-1L-57,-77Z" fill="#8f2e3f" stroke="#8f2e3f" stroke-width="1.51"/><path d="M-248,204L-239,377L-64,283Z" fill="#954e56" stroke="#954e56" stroke-width="1.51"/><path d="M-152,816L-208,923L-93,949Z" fill="#af787c" stroke="#af787c" stroke-width="1.51"/><path d="M-151,1080L-188,1290L-77,1222Z" fill="#c38a8e" stroke="#c38a8e" stroke-width="1.51"/><path d="M-239,377L-169,535L-78,441Z" fill="#985c62" stroke="#985c62" stroke-width="1.51"/><path d="M-179,60L-248,204L-95,121Z" fill="#92404c" stroke="#92404c" stroke-width="1.51"/><path d="M-208,923L-151,1080L-93,949Z" fill="#b57d81" stroke="#b57d81" stroke-width="1.51"/><path d="M-164,713L-208,923L-152,816Z" fill="#aa7277" stroke="#aa7277" stroke-width="1.51"/><path d="M-208,923L-188,1290L-151,1080Z" fill="#bc8286" stroke="#bc8286" stroke-width="1.51"/><path d="M-169,535L-239,377L-164,713Z" fill="#996266" stroke="#996266" stroke-width="1.51"/><path d="M-239,377L-208,923L-164,713Z" fill="#a1686d" stroke="#a1686d" stroke-width="1.51"/><path d="M-220,-1L-248,204L-179,60Z" fill="#913b47" stroke="#913b47" stroke-width="1.51"/><path d="M-231,-139L-248,204L-220,-1Z" fill="#903343" stroke="#903343" stroke-width="1.51"/></svg>