<svg xmlns="http://www.w3.org/2000/svg" width="1920" height="1080"><path d="M-33,-235L145,-229L567,-256Z" fill="#a04243" stroke="#a04243" stroke-width="1.51"/><path d="M567,-256L865,-229L1194,-225Z" fill="#c17d75" stroke="#c17d75" stroke-width="1.51"/><path d="M1054,1321L909,1329L1600,1337Z" fill="#909090" stroke="#909090" stroke-width="1.51"/><path d="M1194,-225L1499,-216L1915,-218Z" fill="#a46a6b" stroke="#a46a6b" stroke-width="1.51"/><path d="M567,-256L1194,-225L1915,-218Z" fill="#c18486" stroke="#c18486" stroke-width="1.51"/><path d="M1499,-216L1618,-200L1915,-218Z" fill="#975e5f" stroke="#975e5f" stroke-width="1.51"/><path d="M1740,1285L1600,1337L1973,1333Z" fill="#5d5d5d" stroke="#5d5d5d" stroke-width="1.51"/><path d="M1910,1108L1973,1333L2062,1331Z" fill="#525252" stroke="#525252" stroke-width="1.51"/><path d="M1976,-31L2034,81L2102,-64Z" fill="#7d524b" stroke="#7d524b" stroke-width="1.51"/><path d="M1915,-218L1976,-31L2102,-64Z" fill="#7c4a44" stroke="#7c4a44" stroke-width="1.51"/><path d="M1920,279L1973,403L2103,222Z" fill="#917b70" stroke="#917b70" stroke-width="1.51"/><path d="M2102,-64L2034,81L2103,222Z" fill="#7d5751" stroke="#7d5751" stroke-width="1.51"/><path d="M1895,887L1972,1017L2110,827Z" fill="#808080" stroke="#808080" stroke-width="1.51"/><path d="M2103,222L1973,403L2120,414Z" fill="#8c796e" stroke="#8c796e" stroke-width="1.51"/><path d="M1975,521L2110,556L2120,414Z" fill="#958c82" stroke="#958c82" stroke-width="1.51"/><path d="M1973,403L1975,521L2120,414Z" fill="#978a7e" stroke="#978a7e" stroke-width="1.51"/><path d="M1916,642L2110,827L2124,643Z" fill="#959595" stroke="#959595" stroke-width="1.51"/><path d="M2120,414L2110,556L2124,643Z" fill="#928c85" stroke="#928c85" stroke-width="1.51"/><path d="M2110,827L1972,1017L2129,951Z" fill="#757575" stroke="#757575" stroke-width="1.51"/><path d="M2124,643L2110,827L2129,951Z" fill="#808080" stroke="#808080" stroke-width="1.51"/><path d="M1915,-218L2102,-64L2130,-197Z" fill="#73403e" stroke="#73403e" stroke-width="1.51"/><path d="M2103,222L2120,414L2130,-197Z" fill="#7c5c54" stroke="#7c5c54" stroke-width="1.51"/><path d="M2102,-64L2103,222L2130,-197Z" fill="#744a43" stroke="#744a43" stroke-width="1.51"/><path d="M2120,414L2124,643L2130,-197Z" fill="#826c62" stroke="#826c62" stroke-width="1.51"/><path d="M1910,1108L2062,1331L2133,1092Z" fill="#585858" stroke="#585858" stroke-width="1.51"/><path d="M1972,1017L1910,1108L2133,1092Z" fill="#696969" stroke="#696969" stroke-width="1.51"/><path d="M2129,951L1972,1017L2133,1092Z" fill="#696969" stroke="#696969" stroke-width="1.51"/><path d="M2124,643L2129,951L2133,1092Z" fill="#747474" stroke="#747474" stroke-width="1.51"/><path d="M2110,556L1975,521L2124,643Z" fill="#999591" stroke="#999591" stroke-width="1.51"/><path d="M1975,521L1916,642L2124,643Z" fill="#a19f9d" stroke="#a19f9d" stroke-width="1.51"/><path d="M1916,642L1895,887L2110,827Z" fill="#929292" stroke="#929292" stroke-width="1.51"/><path d="M2034,81L1920,279L2103,222Z" fill="#886b63" stroke="#886b63" stroke-width="1.51"/><path d="M1618,-200L1815,-178L1915,-218Z" fill="#8d5656" stroke="#8d5656" stroke-width="1.51"/><path d="M1931,81L1920,279L2034,81Z" fill="#8d6b63" stroke="#8d6b63" stroke-width="1.51"/><path d="M1976,-31L1931,81L2034,81Z" fill="#855d56" stroke="#855d56" stroke-width="1.51"/><path d="M1483,1294L1054,1321L1600,1337Z" fill="#818181" stroke="#818181" stroke-width="1.51"/><path d="M1738,1162L1740,1285L1910,1108Z" fill="#6e6e6e" stroke="#6e6e6e" stroke-width="1.51"/><path d="M1828,857L1895,887L1916,642Z" fill="#9b9b9b" stroke="#9b9b9b" stroke-width="1.51"/><path d="M1796,662L1828,857L1916,642Z" fill="#a9a9a9" stroke="#a9a9a9" stroke-width="1.51"/><path d="M1817,107L1920,279L1931,81Z" fill="#95746c" stroke="#95746c" stroke-width="1.51"/><path d="M1910,1108L1740,1285L1973,1333Z" fill="#5f5f5f" stroke="#5f5f5f" stroke-width="1.51"/><path d="M1920,279L1835,341L1973,403Z" fill="#9d8a7e" stroke="#9d8a7e" stroke-width="1.51"/><path d="M1748,569L1916,642L1975,521Z" fill="#aeaaa6" stroke="#aeaaa6" stroke-width="1.51"/><path d="M1973,403L1835,341L1975,521Z" fill="#9f9185" stroke="#9f9185" stroke-width="1.51"/><path d="M1835,341L1748,569L1975,521Z" fill="#aba096" stroke="#aba096" stroke-width="1.51"/><path d="M1915,-218L1815,-178L1976,-31Z" fill="#84504c" stroke="#84504c" stroke-width="1.51"/><path d="M1749,-49L1931,81L1976,-31Z" fill="#8d615a" stroke="#8d615a" stroke-width="1.51"/><path d="M1815,-178L1749,-49L1976,-31Z" fill="#8d5b54" stroke="#8d5b54" stroke-width="1.51"/><path d="M1895,887L1758,979L1972,1017Z" fill="#858585" stroke="#858585" stroke-width="1.51"/><path d="M1758,979L1910,1108L1972,1017Z" fill="#7b7b7b" stroke="#7b7b7b" stroke-width="1.51"/><path d="M1204,1277L1054,1321L1483,1294Z" fill="#8f8f8f" stroke="#8f8f8f" stroke-width="1.51"/><path d="M1748,569L1796,662L1916,642Z" fill="#b7b6b6" stroke="#b7b6b6" stroke-width="1.51"/><path d="M1817,107L1834,289L1920,279Z" fill="#9c8077" stroke="#9c8077" stroke-width="1.51"/><path d="M1834,289L1835,341L1920,279Z" fill="#9f8a7f" stroke="#9f8a7f" stroke-width="1.51"/><path d="M1749,-49L1817,107L1931,81Z" fill="#956c65" stroke="#956c65" stroke-width="1.51"/><path d="M1828,857L1758,979L1895,887Z" fill="#919191" stroke="#919191" stroke-width="1.51"/><path d="M1758,979L1738,1162L1910,1108Z" fill="#7c7c7c" stroke="#7c7c7c" stroke-width="1.51"/><path d="M1749,-49L1642,71L1817,107Z" fill="#9f756d" stroke="#9f756d" stroke-width="1.51"/><path d="M1642,71L1605,283L1817,107Z" fill="#a9877e" stroke="#a9877e" stroke-width="1.51"/><path d="M1796,662L1660,708L1828,857Z" fill="#aeaeae" stroke="#aeaeae" stroke-width="1.51"/><path d="M1660,708L1637,819L1828,857Z" fill="#adadad" stroke="#adadad" stroke-width="1.51"/><path d="M1817,107L1605,283L1834,289Z" fill="#a68b81" stroke="#a68b81" stroke-width="1.51"/><path d="M1630,416L1748,569L1835,341Z" fill="#b4a79a" stroke="#b4a79a" stroke-width="1.51"/><path d="M1834,289L1605,283L1835,341Z" fill="#aa9389" stroke="#aa9389" stroke-width="1.51"/><path d="M1605,283L1630,416L1835,341Z" fill="#b4a094" stroke="#b4a094" stroke-width="1.51"/><path d="M1665,1120L1738,1162L1758,979Z" fill="#838383" stroke="#838383" stroke-width="1.51"/><path d="M1637,819L1758,979L1828,857Z" fill="#9d9d9d" stroke="#9d9d9d" stroke-width="1.51"/><path d="M1674,-33L1642,71L1749,-49Z" fill="#a1736c" stroke="#a1736c" stroke-width="1.51"/><path d="M1618,-200L1749,-49L1815,-178Z" fill="#96605c" stroke="#96605c" stroke-width="1.51"/><path d="M1748,569L1660,708L1796,662Z" fill="#bebebe" stroke="#bebebe" stroke-width="1.51"/><path d="M1738,1162L1665,1120L1740,1285Z" fill="#767676" stroke="#767676" stroke-width="1.51"/><path d="M1619,562L1660,708L1748,569Z" fill="#c5c3c2" stroke="#c5c3c2" stroke-width="1.51"/><path d="M1630,416L1619,562L1748,569Z" fill="#c0b8af" stroke="#c0b8af" stroke-width="1.51"/><path d="M1618,-200L1674,-33L1749,-49Z" fill="#9d6962" stroke="#9d6962" stroke-width="1.51"/><path d="M1611,1025L1665,1120L1758,979Z" fill="#8e8e8e" stroke="#8e8e8e" stroke-width="1.51"/><path d="M1637,819L1611,1025L1758,979Z" fill="#9d9d9d" stroke="#9d9d9d" stroke-width="1.51"/><path d="M1665,1120L1600,1337L1740,1285Z" fill="#717171" stroke="#717171" stroke-width="1.51"/><path d="M1532,524L1619,562L1630,416Z" fill="#c6bdb3" stroke="#c6bdb3" stroke-width="1.51"/><path d="M1495,1021L1611,1025L1637,819Z" fill="#a3a3a3" stroke="#a3a3a3" stroke-width="1.51"/><path d="M1496,74L1605,283L1642,71Z" fill="#b49087" stroke="#b49087" stroke-width="1.51"/><path d="M1483,1294L1600,1337L1665,1120Z" fill="#787878" stroke="#787878" stroke-width="1.51"/><path d="M1483,1123L1483,1294L1665,1120Z" fill="#878787" stroke="#878787" stroke-width="1.51"/><path d="M1618,-200L1442,-70L1674,-33Z" fill="#a7716a" stroke="#a7716a" stroke-width="1.51"/><path d="M1496,74L1642,71L1674,-33Z" fill="#ac8079" stroke="#ac8079" stroke-width="1.51"/><path d="M1442,-70L1496,74L1674,-33Z" fill="#b08179" stroke="#b08179" stroke-width="1.51"/><path d="M145,-229L236,-224L567,-256Z" fill="#a54a4a" stroke="#a54a4a" stroke-width="1.51"/><path d="M1496,74L1474,271L1605,283Z" fill="#bc9e94" stroke="#bc9e94" stroke-width="1.51"/><path d="M1467,801L1495,1021L1637,819Z" fill="#b2b2b2" stroke="#b2b2b2" stroke-width="1.51"/><path d="M1619,562L1454,640L1660,708Z" fill="#cfcfcf" stroke="#cfcfcf" stroke-width="1.51"/><path d="M1467,801L1637,819L1660,708Z" fill="#bbbbbb" stroke="#bbbbbb" stroke-width="1.51"/><path d="M1611,1025L1483,1123L1665,1120Z" fill="#909090" stroke="#909090" stroke-width="1.51"/><path d="M1454,640L1467,801L1660,708Z" fill="#c9c9c9" stroke="#c9c9c9" stroke-width="1.51"/><path d="M1499,-216L1442,-70L1618,-200Z" fill="#a9716e" stroke="#a9716e" stroke-width="1.51"/><path d="M1605,283L1449,369L1630,416Z" fill="#c1aea2" stroke="#c1aea2" stroke-width="1.51"/><path d="M1194,-225L1376,-176L1499,-216Z" fill="#b77c7b" stroke="#b77c7b" stroke-width="1.51"/><path d="M1495,1021L1483,1123L1611,1025Z" fill="#999999" stroke="#999999" stroke-width="1.51"/><path d="M1532,524L1454,640L1619,562Z" fill="#d0ccc8" stroke="#d0ccc8" stroke-width="1.51"/><path d="M1449,369L1532,524L1630,416Z" fill="#c8baad" stroke="#c8baad" stroke-width="1.51"/><path d="M1378,1255L1204,1277L1483,1294Z" fill="#898989" stroke="#898989" stroke-width="1.51"/><path d="M1474,271L1449,369L1605,283Z" fill="#c3aca1" stroke="#c3aca1" stroke-width="1.51"/><path d="M440,1305L329,1334L909,1329Z" fill="#846c62" stroke="#846c62" stroke-width="1.51"/><path d="M1483,1123L1378,1255L1483,1294Z" fill="#898989" stroke="#898989" stroke-width="1.51"/><path d="M1467,801L1359,850L1495,1021Z" fill="#b9b9b9" stroke="#b9b9b9" stroke-width="1.51"/><path d="M1361,205L1474,271L1496,74Z" fill="#c3a298" stroke="#c3a298" stroke-width="1.51"/><path d="M1376,-176L1442,-70L1499,-216Z" fill="#b27975" stroke="#b27975" stroke-width="1.51"/><path d="M1310,564L1454,640L1532,524Z" fill="#dbd7d3" stroke="#dbd7d3" stroke-width="1.51"/><path d="M1449,369L1310,564L1532,524Z" fill="#d5cbc0" stroke="#d5cbc0" stroke-width="1.51"/><path d="M1356,371L1310,564L1449,369Z" fill="#d8cabd" stroke="#d8cabd" stroke-width="1.51"/><path d="M1454,640L1312,704L1467,801Z" fill="#d5d5d5" stroke="#d5d5d5" stroke-width="1.51"/><path d="M1347,1125L1378,1255L1483,1123Z" fill="#969696" stroke="#969696" stroke-width="1.51"/><path d="M1359,850L1303,991L1495,1021Z" fill="#b6b6b6" stroke="#b6b6b6" stroke-width="1.51"/><path d="M1347,1125L1483,1123L1495,1021Z" fill="#9d9d9d" stroke="#9d9d9d" stroke-width="1.51"/><path d="M1442,-70L1327,127L1496,74Z" fill="#be928a" stroke="#be928a" stroke-width="1.51"/><path d="M1327,127L1361,205L1496,74Z" fill="#c5a097" stroke="#c5a097" stroke-width="1.51"/><path d="M1303,991L1347,1125L1495,1021Z" fill="#a9a9a9" stroke="#a9a9a9" stroke-width="1.51"/><path d="M865,-229L1074,-198L1194,-225Z" fill="#cc8e8b" stroke="#cc8e8b" stroke-width="1.51"/><path d="M1312,704L1359,850L1467,801Z" fill="#cecece" stroke="#cecece" stroke-width="1.51"/><path d="M1356,371L1449,369L1474,271Z" fill="#cdb8ac" stroke="#cdb8ac" stroke-width="1.51"/><path d="M1361,205L1356,371L1474,271Z" fill="#cdb4a9" stroke="#cdb4a9" stroke-width="1.51"/><path d="M1286,-103L1327,127L1442,-70Z" fill="#c29189" stroke="#c29189" stroke-width="1.51"/><path d="M1310,564L1312,704L1454,640Z" fill="#e5e5e5" stroke="#e5e5e5" stroke-width="1.51"/><path d="M1376,-176L1286,-103L1442,-70Z" fill="#bb837c" stroke="#bb837c" stroke-width="1.51"/><path d="M567,-256L699,-226L865,-229Z" fill="#b86f66" stroke="#b86f66" stroke-width="1.51"/><path d="M626,1280L440,1305L909,1329Z" fill="#8a776c" stroke="#8a776c" stroke-width="1.51"/><path d="M1286,-103L1204,-70L1327,127Z" fill="#ca9890" stroke="#ca9890" stroke-width="1.51"/><path d="M1190,1141L1204,1277L1347,1125Z" fill="#a1a1a1" stroke="#a1a1a1" stroke-width="1.51"/><path d="M1180,376L1310,564L1356,371Z" fill="#e1d3c5" stroke="#e1d3c5" stroke-width="1.51"/><path d="M1170,253L1356,371L1361,205Z" fill="#d6bcb1" stroke="#d6bcb1" stroke-width="1.51"/><path d="M1194,-225L1286,-103L1376,-176Z" fill="#c08682" stroke="#c08682" stroke-width="1.51"/><path d="M1347,1125L1204,1277L1378,1255Z" fill="#969696" stroke="#969696" stroke-width="1.51"/><path d="M1170,253L1180,376L1356,371Z" fill="#dfcabd" stroke="#dfcabd" stroke-width="1.51"/><path d="M1310,564L1226,649L1312,704Z" fill="#ececec" stroke="#ececec" stroke-width="1.51"/><path d="M1204,-70L1134,81L1327,127Z" fill="#d1a49c" stroke="#d1a49c" stroke-width="1.51"/><path d="M1184,968L1303,991L1359,850Z" fill="#c2c2c2" stroke="#c2c2c2" stroke-width="1.51"/><path d="M1152,831L1184,968L1359,850Z" fill="#cecece" stroke="#cecece" stroke-width="1.51"/><path d="M1312,704L1152,831L1359,850Z" fill="#d6d6d6" stroke="#d6d6d6" stroke-width="1.51"/><path d="M1327,127L1170,253L1361,205Z" fill="#d3b2a8" stroke="#d3b2a8" stroke-width="1.51"/><path d="M1303,991L1190,1141L1347,1125Z" fill="#acacac" stroke="#acacac" stroke-width="1.51"/><path d="M1180,376L1136,583L1310,564Z" fill="#ece3da" stroke="#ece3da" stroke-width="1.51"/><path d="M1134,81L1170,253L1327,127Z" fill="#d7b3aa" stroke="#d7b3aa" stroke-width="1.51"/><path d="M1184,968L1190,1141L1303,991Z" fill="#b9b9b9" stroke="#b9b9b9" stroke-width="1.51"/><path d="M1226,649L1152,831L1312,704Z" fill="#e4e4e4" stroke="#e4e4e4" stroke-width="1.51"/><path d="M1136,583L1226,649L1310,564Z" fill="#f0eeeb" stroke="#f0eeeb" stroke-width="1.51"/><path d="M1194,-225L1204,-70L1286,-103Z" fill="#c88e88" stroke="#c88e88" stroke-width="1.51"/><path d="M1134,81L1085,200L1170,253Z" fill="#e1beb4" stroke="#e1beb4" stroke-width="1.51"/><path d="M1184,968L1028,1024L1190,1141Z" fill="#c0c0c0" stroke="#c0c0c0" stroke-width="1.51"/><path d="M1071,48L1134,81L1204,-70Z" fill="#d8a9a0" stroke="#d8a9a0" stroke-width="1.51"/><path d="M1194,-225L1074,-198L1204,-70Z" fill="#cd918d" stroke="#cd918d" stroke-width="1.51"/><path d="M1022,685L1152,831L1226,649Z" fill="#eeeeee" stroke="#eeeeee" stroke-width="1.51"/><path d="M1136,583L1022,685L1226,649Z" fill="#fafafa" stroke="#fafafa" stroke-width="1.51"/><path d="M1018,551L1136,583L1180,376Z" fill="#f5ebe2" stroke="#f5ebe2" stroke-width="1.51"/><path d="M998,380L1018,551L1180,376Z" fill="#f2e2d3" stroke="#f2e2d3" stroke-width="1.51"/><path d="M1190,1141L1029,1176L1204,1277Z" fill="#a8a8a8" stroke="#a8a8a8" stroke-width="1.51"/><path d="M1029,1176L1054,1321L1204,1277Z" fill="#a3a3a3" stroke="#a3a3a3" stroke-width="1.51"/><path d="M1074,-198L1003,-111L1204,-70Z" fill="#d59b94" stroke="#d59b94" stroke-width="1.51"/><path d="M1003,-111L1071,48L1204,-70Z" fill="#d9a49c" stroke="#d9a49c" stroke-width="1.51"/><path d="M1170,253L998,380L1180,376Z" fill="#ebd5c9" stroke="#ebd5c9" stroke-width="1.51"/><path d="M1152,831L986,860L1184,968Z" fill="#d9d9d9" stroke="#d9d9d9" stroke-width="1.51"/><path d="M1028,1024L1029,1176L1190,1141Z" fill="#b9b8b8" stroke="#b9b8b8" stroke-width="1.51"/><path d="M986,860L1028,1024L1184,968Z" fill="#d1cfce" stroke="#d1cfce" stroke-width="1.51"/><path d="M1085,200L998,380L1170,253Z" fill="#e9cec3" stroke="#e9cec3" stroke-width="1.51"/><path d="M1022,685L986,860L1152,831Z" fill="#e7e5e2" stroke="#e7e5e2" stroke-width="1.51"/><path d="M1071,48L1085,200L1134,81Z" fill="#e0b8af" stroke="#e0b8af" stroke-width="1.51"/><path d="M1018,551L1022,685L1136,583Z" fill="#fcf8f4" stroke="#fcf8f4" stroke-width="1.51"/><path d="M910,251L998,380L1085,200Z" fill="#e5c6b7" stroke="#e5c6b7" stroke-width="1.51"/><path d="M1071,48L902,107L1085,200Z" fill="#ddb3a7" stroke="#ddb3a7" stroke-width="1.51"/><path d="M902,107L910,251L1085,200Z" fill="#deb7a7" stroke="#deb7a7" stroke-width="1.51"/><path d="M1029,1176L909,1329L1054,1321Z" fill="#9d9893" stroke="#9d9893" stroke-width="1.51"/><path d="M1003,-111L875,-54L1071,48Z" fill="#d49b8e" stroke="#d49b8e" stroke-width="1.51"/><path d="M875,-54L902,107L1071,48Z" fill="#d5a292" stroke="#d5a292" stroke-width="1.51"/><path d="M865,-229L1003,-111L1074,-198Z" fill="#cb8c84" stroke="#cb8c84" stroke-width="1.51"/><path d="M998,380L880,540L1018,551Z" fill="#f1e0cf" stroke="#f1e0cf" stroke-width="1.51"/><path d="M880,734L986,860L1022,685Z" fill="#e8e1da" stroke="#e8e1da" stroke-width="1.51"/><path d="M986,860L892,1002L1028,1024Z" fill="#cbc5bf" stroke="#cbc5bf" stroke-width="1.51"/><path d="M1028,1024L892,1002L1029,1176Z" fill="#bcb6b1" stroke="#bcb6b1" stroke-width="1.51"/><path d="M912,365L880,540L998,380Z" fill="#ebd5bf" stroke="#ebd5bf" stroke-width="1.51"/><path d="M910,251L912,365L998,380Z" fill="#e5c9b5" stroke="#e5c9b5" stroke-width="1.51"/><path d="M1018,551L880,540L1022,685Z" fill="#f8eee5" stroke="#f8eee5" stroke-width="1.51"/><path d="M880,540L880,734L1022,685Z" fill="#f5ece4" stroke="#f5ece4" stroke-width="1.51"/><path d="M837,1187L909,1329L1029,1176Z" fill="#a19991" stroke="#a19991" stroke-width="1.51"/><path d="M892,1002L837,1187L1029,1176Z" fill="#b1a9a0" stroke="#b1a9a0" stroke-width="1.51"/><path d="M887,870L892,1002L986,860Z" fill="#d0c8bf" stroke="#d0c8bf" stroke-width="1.51"/><path d="M880,734L887,870L986,860Z" fill="#ddd4cb" stroke="#ddd4cb" stroke-width="1.51"/><path d="M865,-229L875,-54L1003,-111Z" fill="#ca8b7c" stroke="#ca8b7c" stroke-width="1.51"/><path d="M865,-229L766,-43L875,-54Z" fill="#c78672" stroke="#c78672" stroke-width="1.51"/><path d="M734,556L739,739L880,734Z" fill="#ebdccf" stroke="#ebdccf" stroke-width="1.51"/><path d="M734,556L880,734L880,540Z" fill="#f2e4d5" stroke="#f2e4d5" stroke-width="1.51"/><path d="M773,344L734,556L880,540Z" fill="#e8cfb7" stroke="#e8cfb7" stroke-width="1.51"/><path d="M880,734L779,836L887,870Z" fill="#dbcfc3" stroke="#dbcfc3" stroke-width="1.51"/><path d="M727,1162L837,1187L892,1002Z" fill="#aea195" stroke="#aea195" stroke-width="1.51"/><path d="M887,870L783,948L892,1002Z" fill="#c9beb2" stroke="#c9beb2" stroke-width="1.51"/><path d="M753,104L740,239L902,107Z" fill="#d4a48e" stroke="#d4a48e" stroke-width="1.51"/><path d="M875,-54L766,-43L902,107Z" fill="#ce9581" stroke="#ce9581" stroke-width="1.51"/><path d="M766,-43L753,104L902,107Z" fill="#cf9884" stroke="#cf9884" stroke-width="1.51"/><path d="M717,1255L626,1280L909,1329Z" fill="#918176" stroke="#918176" stroke-width="1.51"/><path d="M837,1187L717,1255L909,1329Z" fill="#988c7f" stroke="#988c7f" stroke-width="1.51"/><path d="M902,107L740,239L910,251Z" fill="#d9af99" stroke="#d9af99" stroke-width="1.51"/><path d="M740,239L773,344L910,251Z" fill="#dbb69e" stroke="#dbb69e" stroke-width="1.51"/><path d="M910,251L773,344L912,365Z" fill="#e1c0a9" stroke="#e1c0a9" stroke-width="1.51"/><path d="M773,344L880,540L912,365Z" fill="#e7ccb3" stroke="#e7ccb3" stroke-width="1.51"/><path d="M783,948L727,1162L892,1002Z" fill="#b9ab9e" stroke="#b9ab9e" stroke-width="1.51"/><path d="M699,-226L766,-43L865,-229Z" fill="#c17b6c" stroke="#c17b6c" stroke-width="1.51"/><path d="M739,739L779,836L880,734Z" fill="#dfd0c3" stroke="#dfd0c3" stroke-width="1.51"/><path d="M779,836L783,948L887,870Z" fill="#cfc2b5" stroke="#cfc2b5" stroke-width="1.51"/><path d="M617,1032L727,1162L783,948Z" fill="#b4a296" stroke="#b4a296" stroke-width="1.51"/><path d="M727,1162L717,1255L837,1187Z" fill="#9f8f83" stroke="#9f8f83" stroke-width="1.51"/><path d="M734,556L585,672L739,739Z" fill="#ebd6ca" stroke="#ebd6ca" stroke-width="1.51"/><path d="M699,-226L548,-109L766,-43Z" fill="#be7665" stroke="#be7665" stroke-width="1.51"/><path d="M593,54L753,104L766,-43Z" fill="#c98d7a" stroke="#c98d7a" stroke-width="1.51"/><path d="M565,398L734,556L773,344Z" fill="#e0bfa6" stroke="#e0bfa6" stroke-width="1.51"/><path d="M779,836L625,879L783,948Z" fill="#cbbaad" stroke="#cbbaad" stroke-width="1.51"/><path d="M625,879L617,1032L783,948Z" fill="#c0aca0" stroke="#c0aca0" stroke-width="1.51"/><path d="M739,739L625,879L779,836Z" fill="#d5c3b6" stroke="#d5c3b6" stroke-width="1.51"/><path d="M740,239L570,289L773,344Z" fill="#d7ad96" stroke="#d7ad96" stroke-width="1.51"/><path d="M570,289L565,398L773,344Z" fill="#d8af98" stroke="#d8af98" stroke-width="1.51"/><path d="M593,54L740,239L753,104Z" fill="#ce9884" stroke="#ce9884" stroke-width="1.51"/><path d="M548,-109L593,54L766,-43Z" fill="#c17e6c" stroke="#c17e6c" stroke-width="1.51"/><path d="M593,54L570,289L740,239Z" fill="#ce9b86" stroke="#ce9b86" stroke-width="1.51"/><path d="M617,1032L565,1110L727,1162Z" fill="#a99489" stroke="#a99489" stroke-width="1.51"/><path d="M551,577L585,672L734,556Z" fill="#e9cfc2" stroke="#e9cfc2" stroke-width="1.51"/><path d="M565,398L551,577L734,556Z" fill="#e2c3af" stroke="#e2c3af" stroke-width="1.51"/><path d="M585,672L625,879L739,739Z" fill="#dac4b8" stroke="#dac4b8" stroke-width="1.51"/><path d="M626,1280L717,1255L727,1162Z" fill="#978579" stroke="#978579" stroke-width="1.51"/><path d="M565,1110L626,1280L727,1162Z" fill="#9d887d" stroke="#9d887d" stroke-width="1.51"/><path d="M567,-256L548,-109L699,-226Z" fill="#b6695f" stroke="#b6695f" stroke-width="1.51"/><path d="M236,-224L471,-205L567,-256Z" fill="#ab5652" stroke="#ab5652" stroke-width="1.51"/><path d="M414,110L473,229L593,54Z" fill="#c58675" stroke="#c58675" stroke-width="1.51"/><path d="M548,-109L459,-29L593,54Z" fill="#bc7565" stroke="#bc7565" stroke-width="1.51"/><path d="M473,229L570,289L593,54Z" fill="#ca927f" stroke="#ca927f" stroke-width="1.51"/><path d="M407,818L485,974L625,879Z" fill="#c3a69b" stroke="#c3a69b" stroke-width="1.51"/><path d="M585,672L476,682L625,879Z" fill="#d9beb3" stroke="#d9beb3" stroke-width="1.51"/><path d="M476,682L407,818L625,879Z" fill="#d0b2a8" stroke="#d0b2a8" stroke-width="1.51"/><path d="M485,974L617,1032L625,879Z" fill="#bba297" stroke="#bba297" stroke-width="1.51"/><path d="M565,1110L440,1305L626,1280Z" fill="#92796f" stroke="#92796f" stroke-width="1.51"/><path d="M443,1108L440,1305L565,1110Z" fill="#997c73" stroke="#997c73" stroke-width="1.51"/><path d="M471,-205L548,-109L567,-256Z" fill="#b2635a" stroke="#b2635a" stroke-width="1.51"/><path d="M485,974L565,1110L617,1032Z" fill="#af958b" stroke="#af958b" stroke-width="1.51"/><path d="M399,418L551,577L565,398Z" fill="#dbb39c" stroke="#dbb39c" stroke-width="1.51"/><path d="M551,577L476,682L585,672Z" fill="#e6cabf" stroke="#e6cabf" stroke-width="1.51"/><path d="M459,-29L414,110L593,54Z" fill="#bf7b6a" stroke="#bf7b6a" stroke-width="1.51"/><path d="M399,418L398,565L551,577Z" fill="#ddb5a3" stroke="#ddb5a3" stroke-width="1.51"/><path d="M485,974L443,1108L565,1110Z" fill="#a98d83" stroke="#a98d83" stroke-width="1.51"/><path d="M399,418L565,398L570,289Z" fill="#d4a790" stroke="#d4a790" stroke-width="1.51"/><path d="M473,229L399,418L570,289Z" fill="#cf9c88" stroke="#cf9c88" stroke-width="1.51"/><path d="M398,565L476,682L551,577Z" fill="#e4c3b7" stroke="#e4c3b7" stroke-width="1.51"/><path d="M471,-205L459,-29L548,-109Z" fill="#b56759" stroke="#b56759" stroke-width="1.51"/><path d="M307,1148L440,1305L443,1108Z" fill="#93726a" stroke="#93726a" stroke-width="1.51"/><path d="M311,-25L459,-29L471,-205Z" fill="#b36355" stroke="#b36355" stroke-width="1.51"/><path d="M332,411L399,418L473,229Z" fill="#cf9b86" stroke="#cf9b86" stroke-width="1.51"/><path d="M288,206L332,411L473,229Z" fill="#c88e7c" stroke="#c88e7c" stroke-width="1.51"/><path d="M407,818L331,840L485,974Z" fill="#c19e95" stroke="#c19e95" stroke-width="1.51"/><path d="M331,840L292,996L485,974Z" fill="#b7938a" stroke="#b7938a" stroke-width="1.51"/><path d="M292,996L443,1108L485,974Z" fill="#ac8a81" stroke="#ac8a81" stroke-width="1.51"/><path d="M311,-25L414,110L459,-29Z" fill="#b96f60" stroke="#b96f60" stroke-width="1.51"/><path d="M236,-224L311,-25L471,-205Z" fill="#ac554d" stroke="#ac554d" stroke-width="1.51"/><path d="M414,110L288,206L473,229Z" fill="#c38472" stroke="#c38472" stroke-width="1.51"/><path d="M302,647L407,818L476,682Z" fill="#d7b3a9" stroke="#d7b3a9" stroke-width="1.51"/><path d="M398,565L302,647L476,682Z" fill="#e3beb4" stroke="#e3beb4" stroke-width="1.51"/><path d="M311,-25L296,42L414,110Z" fill="#b86d5f" stroke="#b86d5f" stroke-width="1.51"/><path d="M307,1148L329,1334L440,1305Z" fill="#86645c" stroke="#86645c" stroke-width="1.51"/><path d="M320,550L398,565L399,418Z" fill="#d9ad9b" stroke="#d9ad9b" stroke-width="1.51"/><path d="M302,647L331,840L407,818Z" fill="#cea89f" stroke="#cea89f" stroke-width="1.51"/><path d="M292,996L307,1148L443,1108Z" fill="#a17d75" stroke="#a17d75" stroke-width="1.51"/><path d="M332,411L320,550L399,418Z" fill="#d4a48f" stroke="#d4a48f" stroke-width="1.51"/><path d="M296,42L288,206L414,110Z" fill="#bd7667" stroke="#bd7667" stroke-width="1.51"/><path d="M320,550L302,647L398,565Z" fill="#deb3a7" stroke="#deb3a7" stroke-width="1.51"/><path d="M156,639L181,821L302,647Z" fill="#d3a49c" stroke="#d3a49c" stroke-width="1.51"/><path d="M292,996L167,1038L307,1148Z" fill="#a17870" stroke="#a17870" stroke-width="1.51"/><path d="M129,1135L92,1252L307,1148Z" fill="#8d615a" stroke="#8d615a" stroke-width="1.51"/><path d="M236,-224L183,-42L311,-25Z" fill="#ab5147" stroke="#ab5147" stroke-width="1.51"/><path d="M136,404L99,510L320,550Z" fill="#d19887" stroke="#d19887" stroke-width="1.51"/><path d="M307,1148L92,1252L329,1334Z" fill="#855d56" stroke="#855d56" stroke-width="1.51"/><path d="M92,1252L-3,1340L329,1334Z" fill="#774c45" stroke="#774c45" stroke-width="1.51"/><path d="M302,647L181,821L331,840Z" fill="#cca098" stroke="#cca098" stroke-width="1.51"/><path d="M181,821L292,996L331,840Z" fill="#bb9189" stroke="#bb9189" stroke-width="1.51"/><path d="M136,404L320,550L332,411Z" fill="#d09c87" stroke="#d09c87" stroke-width="1.51"/><path d="M288,206L136,404L332,411Z" fill="#c88c79" stroke="#c88c79" stroke-width="1.51"/><path d="M108,189L288,206L296,42Z" fill="#ba7062" stroke="#ba7062" stroke-width="1.51"/><path d="M108,50L108,189L296,42Z" fill="#b46457" stroke="#b46457" stroke-width="1.51"/><path d="M156,639L302,647L320,550Z" fill="#ddafa5" stroke="#ddafa5" stroke-width="1.51"/><path d="M99,510L156,639L320,550Z" fill="#d7a396" stroke="#d7a396" stroke-width="1.51"/><path d="M108,189L136,404L288,206Z" fill="#bf7c6a" stroke="#bf7c6a" stroke-width="1.51"/><path d="M181,821L167,1038L292,996Z" fill="#b0837b" stroke="#b0837b" stroke-width="1.51"/><path d="M167,1038L129,1135L307,1148Z" fill="#986d65" stroke="#986d65" stroke-width="1.51"/><path d="M183,-42L296,42L311,-25Z" fill="#b15f53" stroke="#b15f53" stroke-width="1.51"/><path d="M183,-42L108,50L296,42Z" fill="#b05c51" stroke="#b05c51" stroke-width="1.51"/><path d="M145,-229L183,-42L236,-224Z" fill="#a44641" stroke="#a44641" stroke-width="1.51"/><path d="M108,189L35,371L136,404Z" fill="#c07b69" stroke="#c07b69" stroke-width="1.51"/><path d="M-56,665L-5,827L156,639Z" fill="#cb938b" stroke="#cb938b" stroke-width="1.51"/><path d="M-5,827L-26,1035L167,1038Z" fill="#a8736c" stroke="#a8736c" stroke-width="1.51"/><path d="M-5,827L167,1038L181,821Z" fill="#b4827a" stroke="#b4827a" stroke-width="1.51"/><path d="M156,639L-5,827L181,821Z" fill="#c7938b" stroke="#c7938b" stroke-width="1.51"/><path d="M145,-229L-64,-94L183,-42Z" fill="#a2413a" stroke="#a2413a" stroke-width="1.51"/><path d="M-64,-94L108,50L183,-42Z" fill="#a84c41" stroke="#a84c41" stroke-width="1.51"/><path d="M30,196L35,371L108,189Z" fill="#ba705f" stroke="#ba705f" stroke-width="1.51"/><path d="M-33,-235L-64,-94L145,-229Z" fill="#9a3335" stroke="#9a3335" stroke-width="1.51"/><path d="M-20,1089L129,1135L167,1038Z" fill="#98665f" stroke="#98665f" stroke-width="1.51"/><path d="M-26,1035L-20,1089L167,1038Z" fill="#9b675f" stroke="#9b675f" stroke-width="1.51"/><path d="M99,510L-18,554L156,639Z" fill="#d39a8d" stroke="#d39a8d" stroke-width="1.51"/><path d="M-18,554L-56,665L156,639Z" fill="#d69b92" stroke="#d69b92" stroke-width="1.51"/><path d="M108,50L30,196L108,189Z" fill="#b36355" stroke="#b36355" stroke-width="1.51"/><path d="M-32,127L30,196L108,50Z" fill="#b05c4f" stroke="#b05c4f" stroke-width="1.51"/><path d="M35,371L99,510L136,404Z" fill="#c88975" stroke="#c88975" stroke-width="1.51"/><path d="M-20,1089L92,1252L129,1135Z" fill="#8c5b54" stroke="#8c5b54" stroke-width="1.51"/><path d="M35,371L-18,554L99,510Z" fill="#ca8a78" stroke="#ca8a78" stroke-width="1.51"/><path d="M-64,-94L-32,127L108,50Z" fill="#a84d44" stroke="#a84d44" stroke-width="1.51"/><path d="M-20,1089L-115,1277L92,1252Z" fill="#824f4a" stroke="#824f4a" stroke-width="1.51"/><path d="M-115,1277L-3,1340L92,1252Z" fill="#75433e" stroke="#75433e" stroke-width="1.51"/><path d="M-116,984L-26,1035L-5,827Z" fill="#a76f6b" stroke="#a76f6b" stroke-width="1.51"/><path d="M-128,563L-18,554L35,371Z" fill="#c88879" stroke="#c88879" stroke-width="1.51"/><path d="M-207,360L-128,563L35,371Z" fill="#c17b6e" stroke="#c17b6e" stroke-width="1.51"/><path d="M30,196L-124,190L35,371Z" fill="#b76a5c" stroke="#b76a5c" stroke-width="1.51"/><path d="M-124,190L-207,360L35,371Z" fill="#b76c60" stroke="#b76c60" stroke-width="1.51"/><path d="M-64,-94L-156,121L-32,127Z" fill="#a54a46" stroke="#a54a46" stroke-width="1.51"/><path d="M-56,665L-120,819L-5,827Z" fill="#bf8581" stroke="#bf8581" stroke-width="1.51"/><path d="M-32,127L-124,190L30,196Z" fill="#b05d53" stroke="#b05d53" stroke-width="1.51"/><path d="M-205,1180L-115,1277L-20,1089Z" fill="#814c4c" stroke="#814c4c" stroke-width="1.51"/><path d="M-128,563L-56,665L-18,554Z" fill="#d0928c" stroke="#d0928c" stroke-width="1.51"/><path d="M-120,819L-116,984L-5,827Z" fill="#af7674" stroke="#af7674" stroke-width="1.51"/><path d="M-216,-90L-156,121L-64,-94Z" fill="#9e3c3d" stroke="#9e3c3d" stroke-width="1.51"/><path d="M-215,-226L-64,-94L-33,-235Z" fill="#952a33" stroke="#952a33" stroke-width="1.51"/><path d="M-26,1035L-116,984L-20,1089Z" fill="#9a635f" stroke="#9a635f" stroke-width="1.51"/><path d="M-116,984L-205,1180L-20,1089Z" fill="#905958" stroke="#905958" stroke-width="1.51"/><path d="M-211,711L-120,819L-56,665Z" fill="#c28685" stroke="#c28685" stroke-width="1.51"/><path d="M-156,121L-124,190L-32,127Z" fill="#ab564f" stroke="#ab564f" stroke-width="1.51"/><path d="M-215,-226L-216,-90L-64,-94Z" fill="#952b34" stroke="#952b34" stroke-width="1.51"/><path d="M-128,563L-211,711L-56,665Z" fill="#ce9090" stroke="#ce9090" stroke-width="1.51"/><path d="M-120,819L-211,711L-116,984Z" fill="#b27777" stroke="#b27777" stroke-width="1.51"/><path d="M-211,711L-205,1180L-116,984Z" fill="#a06668" stroke="#a06668" stroke-width="1.51"/><path d="M-156,121L-207,360L-124,190Z" fill="#ae5c57" stroke="#ae5c57" stroke-width="1.51"/><path d="M-207,360L-211,711L-128,563Z" fill="#c68480" stroke="#c68480" stroke-width="1.51"/><path d="M-216,-90L-207,360L-156,121Z" fill="#a64d4d" stroke="#a64d4d" stroke-width="1.51"/><path d="M-216,-90L-211,711L-207,360Z" fill="#b46761" stroke="#b46761" stroke-width="1.51"/></svg>